<?xml version="1.0" standalone="no"?>
<!DOCTYPE svg PUBLIC "-//W3C//DTD SVG 20010904//EN"
 "http://www.w3.org/TR/2001/REC-SVG-20010904/DTD/svg10.dtd">
<svg version="1.0" xmlns="http://www.w3.org/2000/svg"
 width="300.000000pt" height="168.000000pt" viewBox="0 0 300.000000 168.000000"
 preserveAspectRatio="xMidYMid meet">

<g transform="translate(0.000000,168.000000) scale(0.100000,-0.100000)"
fill="#000000" stroke="none">
<path d="M0 840 l0 -840 260 0 c143 0 260 4 260 9 0 5 -7 15 -17 22 -13 11
-17 11 -20 2 -7 -21 -23 -15 -23 9 0 12 -16 35 -40 55 -26 22 -40 43 -40 58 0
13 -4 27 -10 30 -5 3 -10 11 -10 16 0 6 5 7 10 4 20 -12 9 14 -11 29 -12 8
-19 21 -16 29 7 18 -19 57 -37 57 -8 0 -16 9 -19 20 -3 12 -1 18 5 14 5 -3 2
8 -7 25 -9 18 -18 46 -20 63 -2 16 -7 33 -11 37 -4 3 -4 -2 -1 -11 4 -10 3
-18 -2 -18 -11 0 -21 36 -21 78 0 17 -3 32 -7 32 -5 0 -8 126 -8 280 0 217 3
280 13 280 7 0 12 15 12 39 0 58 18 60 23 4 2 -30 3 -19 4 28 0 50 6 87 17
109 9 18 16 39 16 47 0 7 5 13 11 13 6 0 8 9 4 20 -5 15 -3 18 9 14 9 -3 12
-12 9 -22 -4 -9 -3 -14 1 -11 4 4 9 21 11 39 2 17 11 45 20 62 8 17 15 37 15
45 0 7 11 13 25 13 16 0 25 6 25 16 0 14 -3 14 -15 4 -11 -9 -15 -9 -15 -1 0
6 7 14 15 17 8 4 15 15 15 25 0 12 7 19 20 19 18 0 90 60 90 75 0 3 -121 5
-270 5 l-270 0 0 -840z m207 -102 c-1 -57 -3 -11 -3 102 0 113 2 159 3 103 2
-57 2 -149 0 -205z m123 -453 c11 -13 10 -14 -4 -9 -9 3 -16 10 -16 15 0 13 6
11 20 -6z"/>
<path d="M2450 1665 c7 -8 17 -15 22 -15 5 0 3 7 -6 15 -8 8 -18 15 -22 15 -3
0 -1 -7 6 -15z"/>
<path d="M2500 1665 c0 -18 18 -51 45 -84 18 -21 18 -23 3 -18 -20 7 -24 -8
-6 -19 6 -4 14 -2 16 4 6 19 22 14 22 -8 0 -11 7 -20 15 -20 13 0 19 -19 18
-65 0 -6 8 -12 19 -12 11 -1 16 3 12 10 -5 8 -4 9 4 2 6 -6 12 -29 14 -53 2
-25 8 -42 16 -42 6 0 12 -10 12 -22 0 -13 4 -29 9 -37 5 -8 6 -24 1 -36 -10
-26 12 -65 37 -65 13 0 14 -12 10 -77 -2 -43 -2 -60 2 -38 5 34 8 23 18 -65
13 -125 10 -369 -5 -379 -6 -4 -12 -45 -13 -94 -2 -120 -10 -152 -34 -151 -16
1 -21 -6 -23 -34 -1 -20 -9 -49 -17 -65 -8 -17 -15 -35 -15 -41 0 -6 -11 -20
-25 -30 -29 -22 -33 -38 -7 -29 15 6 15 5 3 -10 -7 -10 -25 -23 -39 -30 -14
-6 -27 -19 -29 -27 -3 -10 2 -8 13 5 15 18 16 18 10 2 -3 -10 -6 -21 -6 -23 0
-2 -9 -4 -19 -4 -11 0 -29 -13 -40 -29 -23 -31 -27 -46 -11 -36 6 3 10 2 10
-4 0 -5 -4 -13 -10 -16 -33 -20 10 -25 240 -25 l250 0 0 840 0 840 -250 0
c-217 0 -250 -2 -250 -15z m80 -81 c0 -8 -4 -12 -10 -9 -5 3 -10 10 -10 16 0
5 5 9 10 9 6 0 10 -7 10 -16z m217 -766 c-2 -13 -4 -3 -4 22 0 25 2 35 4 23 2
-13 2 -33 0 -45z m-237 -728 c0 -5 -4 -10 -10 -10 -5 0 -10 5 -10 10 0 6 5 10
10 10 6 0 10 -4 10 -10z"/>
<path d="M1470 1551 c0 -28 -4 -53 -10 -56 -5 -3 -10 1 -10 9 0 23 -13 20 -40
-9 -17 -18 -27 -22 -36 -14 -8 7 -13 6 -16 -1 -2 -7 -14 -3 -30 10 l-27 21 -3
-53 -3 -53 -15 78 c-16 83 -33 104 -38 47 -2 -19 -9 -38 -15 -42 -8 -5 -8 -10
1 -20 16 -20 32 -100 23 -113 -15 -19 -21 -88 -9 -103 9 -10 9 -15 -1 -21 -10
-6 -5 -17 18 -40 37 -37 37 -42 11 -66 -23 -21 -19 -48 14 -83 l21 -24 -24
-19 c-24 -20 -24 -20 -48 3 -13 12 -19 24 -14 26 6 2 11 8 11 13 0 6 -4 7 -10
4 -6 -3 -7 1 -4 9 3 9 1 16 -5 16 -7 0 -31 20 -55 45 -36 36 -51 45 -79 45
-41 0 -51 21 -35 78 6 20 8 58 5 84 l-6 47 37 3 c31 3 34 5 17 13 -11 5 -32
21 -47 36 -20 19 -46 30 -93 39 -131 25 -206 -8 -263 -112 -20 -37 -35 -79
-37 -105 -1 -24 -5 -47 -9 -50 -13 -14 -5 -53 13 -63 31 -16 41 -12 41 18 1
26 1 26 15 7 8 -11 19 -26 25 -33 9 -9 9 -17 1 -26 -6 -7 -9 -20 -6 -28 7 -18
-64 -83 -114 -104 -30 -13 -35 -12 -47 3 -7 10 -14 21 -14 25 0 4 -13 15 -30
25 -36 21 -37 27 -5 99 31 70 31 74 -1 74 -14 0 -23 -4 -19 -10 3 -5 1 -10 -5
-10 -6 0 -8 -6 -4 -12 4 -8 3 -10 -2 -5 -5 5 -7 35 -6 68 4 54 2 59 -16 59
-11 0 -23 -6 -25 -12 -4 -10 -6 -10 -6 0 -1 6 -8 12 -16 12 -12 0 -14 -8 -9
-38 4 -27 0 -51 -14 -83 -48 -106 -44 -209 12 -322 28 -56 36 -63 76 -76 41
-13 49 -13 105 7 79 29 97 29 90 0 -12 -58 -35 -192 -35 -210 0 -15 4 -18 18
-13 46 19 56 19 48 -1 -4 -10 -10 -28 -12 -39 -2 -11 -15 -63 -30 -115 -26
-95 -27 -136 -9 -320 1 -14 3 -35 3 -47 2 -22 6 -23 87 -23 82 0 85 1 85 23 0
13 4 27 9 32 5 6 11 28 13 50 3 33 5 36 12 20 5 -11 17 -39 27 -62 11 -23 19
-47 19 -52 0 -8 147 -11 470 -11 l470 0 6 40 c4 22 21 63 39 92 l33 52 10 -39
c6 -22 13 -64 17 -92 l7 -53 108 0 c103 0 108 1 114 23 16 61 -8 246 -43 322
-24 52 -51 142 -44 148 2 3 0 16 -7 29 -7 14 3 7 24 -17 20 -22 36 -45 36 -52
0 -6 8 -18 18 -25 33 -23 61 -93 66 -165 2 -37 2 -37 43 -51 25 -8 39 -8 62 4
26 13 29 19 27 52 -4 39 -24 98 -56 169 -11 24 -20 47 -20 51 0 5 -8 17 -19
26 -10 9 -24 38 -31 64 -7 26 -24 69 -37 96 -23 48 -24 71 -1 48 7 -7 18 -12
26 -12 8 0 21 -8 28 -17 12 -17 13 -17 14 -1 0 9 -4 20 -10 23 -5 3 -10 15
-10 26 0 10 -4 27 -9 37 -13 23 -25 55 -26 67 0 6 -18 32 -39 57 -22 26 -50
73 -64 105 -13 31 -37 73 -53 92 l-29 35 29 25 c16 15 44 49 62 76 19 28 39
53 44 57 6 5 5 8 -2 8 -7 0 -13 10 -13 21 0 12 -13 44 -30 71 -16 26 -30 50
-30 53 0 5 -33 45 -58 71 -7 8 -20 14 -28 14 -25 0 -131 -108 -164 -166 -16
-29 -41 -61 -55 -70 -18 -12 -25 -25 -25 -48 0 -20 -9 -39 -25 -55 -14 -13
-25 -29 -25 -36 0 -7 -12 -16 -26 -19 -14 -4 -37 -18 -50 -31 -14 -14 -39 -27
-56 -30 -17 -3 -36 -8 -42 -11 -6 -3 1 4 17 16 34 27 35 55 1 76 -17 12 -21
19 -13 24 6 4 8 13 5 19 -4 6 0 11 9 11 9 0 14 4 10 9 -3 5 4 12 15 16 26 8
25 19 -2 33 -20 9 -20 11 -4 11 15 1 17 6 12 37 -9 48 -38 97 -64 110 -12 6
-20 13 -18 15 6 7 16 112 9 106 -8 -9 -33 19 -33 37 0 9 -4 16 -10 16 -5 0
-10 -22 -10 -49z m-260 -581 c0 -5 -2 -10 -4 -10 -3 0 -8 5 -11 10 -3 6 -1 10
4 10 6 0 11 -4 11 -10z m-10 -30 c0 -5 -4 -10 -10 -10 -5 0 -10 5 -10 10 0 6
5 10 10 10 6 0 10 -4 10 -10z m-34 -88 c-18 -16 -18 -16 -6 6 6 13 14 21 18
18 3 -4 -2 -14 -12 -24z m-7 -174 c1 -5 -8 -8 -18 -8 -17 0 -18 3 -8 25 10 21
13 22 19 7 4 -9 7 -20 7 -24z m561 -87 c0 -13 7 -32 14 -40 12 -13 13 -28 7
-66 -5 -28 -9 -45 -10 -38 0 6 -13 26 -27 43 -21 24 -29 28 -36 18 -6 -8 -6
-4 -1 12 4 14 7 40 6 59 -1 19 3 44 9 55 10 19 11 19 24 1 8 -10 14 -30 14
-44z m-136 -6 c4 -19 2 -37 -7 -48 -12 -18 -14 -18 -36 1 l-24 19 23 42 c25
44 32 41 44 -14z m-14 -116 c9 -15 15 -18 24 -10 10 8 16 1 26 -32 17 -53 29
-69 49 -63 66 17 71 17 71 -6 0 -13 -12 -66 -25 -117 -14 -52 -25 -105 -25
-118 0 -39 -14 -25 -52 55 -67 139 -64 131 -39 148 29 21 22 51 -25 116 -19
27 -30 48 -24 48 5 0 14 -9 20 -21z m-11 -58 c21 -40 30 -66 24 -72 -14 -14
-29 8 -58 81 -31 80 -11 74 34 -9z m-429 6 c0 -1 -5 -18 -10 -37 -6 -19 -11
-60 -11 -90 -1 -47 -3 -51 -11 -30 -5 14 -15 36 -22 50 -11 21 -9 31 8 68 11
23 26 42 33 42 7 0 13 -1 13 -3z"/>
<path d="M400 132 c0 -5 7 -13 16 -16 10 -4 14 -1 12 6 -5 15 -28 23 -28 10z"/>
</g>
</svg>
