<svg width="100" height="100" viewBox="0 0 100 100" fill="none" xmlns="http://www.w3.org/2000/svg">
<path d="M72.0523 26.5664C73.6983 27.6561 74.4557 29.8239 73.8411 31.6868C73.2831 33.3777 71.5874 34.5639 69.7278 34.5639C68.3158 34.5639 67.4064 34.1395 66.423 33.0221C64.4969 30.8332 65.2735 27.4387 67.9778 26.2259C69.0683 25.7369 71.0491 25.9025 72.0523 26.5664Z" fill="#FF24DC"/>
<path fill-rule="evenodd" clip-rule="evenodd" d="M6.70865 6.28141C10.4859 2.56149 14.2634 0.987487 21.2648 0.216608C23.0079 0.0244753 29.9778 -0.0228251 51.7596 0.00922971C77.6403 0.0473436 80.1334 0.0790075 81.6558 0.38861C86.9343 1.46186 90.5545 3.33921 93.7125 6.64066C96.6414 9.70248 98.2493 12.8196 99.4758 17.8133L99.9081 19.5724L99.9725 48.8908C100.034 76.7126 100.057 79.8237 99.3168 82.741C99.2056 83.1789 99.0773 83.6125 98.9293 84.1247C98.3589 86.0986 97.0656 88.9282 95.9874 90.5616C94.8327 92.3104 92.2978 94.8357 90.4876 96.0405C88.7294 97.2106 86.1847 98.3795 84.2937 98.8853C81.0635 99.7494 73.3526 100 50.001 100C26.6777 100 19.3733 99.7647 15.8061 98.8988C12.6351 98.1289 9.3018 96.3411 6.98025 94.1647C3.75323 91.1394 1.71951 86.9951 0.523074 81.0062L0.0814703 78.7956L0.021678 50.6499C-0.0312753 25.8522 -0.00137919 22.2101 0.272376 20.0312C1.0487 13.8501 2.78072 10.1497 6.70865 6.28141ZM80.6854 19.2726C76.9292 15.5151 72.4077 13.7877 64.8514 13.2228C62.5443 13.0502 39.2421 12.9943 36.6161 13.1548C29.1231 13.6132 24.4943 14.9866 20.7022 17.8774C17.4707 20.341 14.9537 24.673 13.9699 29.4648C13.2215 33.1099 13.1682 34.4662 13.1682 49.8681C13.1682 65.2608 13.2246 66.7099 13.9718 70.4887C14.9063 75.2142 17.2311 79.3014 20.5007 81.9664C23.7582 84.6219 28.4222 86.1402 35.0529 86.7037C38.0566 86.959 61.6621 86.9623 64.7537 86.7078C72.486 86.0714 77.3808 84.1966 80.8861 80.5283C82.426 78.9167 83.1023 77.9471 84.1694 75.8211C85.6898 72.7919 86.4296 69.3351 86.7348 63.8332C86.9843 59.3389 86.9837 39.7753 86.734 35.7953C86.2285 27.7333 84.5442 23.1323 80.6854 19.2726ZM38.1424 46.6431C39.2919 42.2383 42.6886 38.8596 46.8746 37.957C48.5547 37.5948 51.3332 37.5899 53.0297 37.9461C54.8321 38.3247 56.8746 39.3524 58.2262 40.5609C61.8082 43.7634 63.1606 49.4029 61.5208 54.2987C59.5398 60.2124 53.5639 63.3698 46.9723 61.9856C42.7023 61.0888 39.3474 57.7817 38.1494 53.2886C37.6998 51.602 37.6963 48.3521 38.1424 46.6431Z" fill="#FF24DC"/>
<path fill-rule="evenodd" clip-rule="evenodd" d="M64.8514 13.2228C72.4077 13.7877 76.9292 15.5151 80.6854 19.2726C84.5442 23.1323 86.2285 27.7333 86.734 35.7953C86.9837 39.7753 86.9843 59.3389 86.7348 63.8332C86.4296 69.3351 85.6898 72.7919 84.1694 75.8211C83.1023 77.9471 82.426 78.9167 80.8861 80.5283C77.3808 84.1966 72.486 86.0714 64.7537 86.7078C61.6621 86.9623 38.0566 86.959 35.0529 86.7037C28.4222 86.1402 23.7582 84.6219 20.5007 81.9664C17.2311 79.3014 14.9063 75.2142 13.9718 70.4887C13.2246 66.7099 13.1682 65.2608 13.1682 49.8681C13.1682 34.4662 13.2215 33.1099 13.9699 29.4648C14.9537 24.673 17.4707 20.341 20.7022 17.8774C24.4943 14.9866 29.1231 13.6132 36.6161 13.1548C39.2421 12.9943 62.5443 13.0502 64.8514 13.2228ZM29.3367 20.7538C32.6237 19.9211 34.3614 19.8052 45.5068 19.6752C51.3639 19.607 56.6397 19.5363 57.2308 19.5181C59.4111 19.451 66.3708 19.8609 68.0755 20.1568C73.0707 21.0239 75.8243 22.8254 77.7028 26.455C80.109 31.1047 80.9037 39.0013 80.481 54.0639C80.135 66.4013 79.9345 68.557 78.8582 71.5232C78.1567 73.4563 77.2214 74.8822 75.7721 76.2279C73.849 78.0134 71.4666 79.077 67.7824 79.7951C66.3878 80.067 64.2566 80.1333 54.4952 80.2079C32.8144 80.3743 27.7925 79.7234 24.0562 76.2634C20.3995 72.877 19.5689 67.3243 19.7713 47.6203C19.8727 37.7615 20.047 34.6516 20.6971 31.1043C21.8005 25.0833 24.363 22.0135 29.3367 20.7538Z" fill="#FF24DC"/>
<path fill-rule="evenodd" clip-rule="evenodd" d="M45.5068 19.6752C34.3614 19.8052 32.6237 19.9211 29.3367 20.7538C24.363 22.0135 21.8005 25.0833 20.6971 31.1043C20.047 34.6516 19.8727 37.7615 19.7713 47.6203C19.5689 67.3243 20.3995 72.877 24.0562 76.2634C27.7925 79.7234 32.8144 80.3743 54.4952 80.2079C64.2566 80.1333 66.3878 80.067 67.7824 79.7951C71.4666 79.077 73.849 78.0134 75.7721 76.2279C77.2214 74.8822 78.1567 73.4563 78.8582 71.5232C79.9345 68.557 80.135 66.4013 80.481 54.0639C80.9037 39.0013 80.109 31.1047 77.7028 26.455C75.8243 22.8254 73.0707 21.0239 68.0755 20.1568C66.3708 19.8609 59.4111 19.451 57.2308 19.5181C56.6397 19.5363 51.3639 19.607 45.5068 19.6752ZM73.8411 31.6868C74.4557 29.8239 73.6983 27.6561 72.0523 26.5664C71.0491 25.9025 69.0683 25.7369 67.9778 26.2259C65.2735 27.4387 64.4969 30.8332 66.423 33.0221C67.4064 34.1395 68.3158 34.5639 69.7278 34.5639C71.5874 34.5639 73.2831 33.3777 73.8411 31.6868ZM63.0652 36.3603C60.5743 33.9531 57.7603 32.4004 54.3975 31.5773C51.5421 30.8786 48.0793 30.9239 45.0797 31.6993C38.492 33.4023 33.2148 38.8858 31.4953 45.8149C30.9968 47.8236 31.048 52.5169 31.5899 54.4955C33.8549 62.7656 40.486 68.2865 48.8331 68.8519C52.4167 69.0947 56.4986 68.1168 59.6176 66.2686C61.7139 65.0263 65.0081 61.7753 66.1354 59.8363C68.0854 56.4821 68.8491 53.6615 68.8336 49.8681C68.8209 46.7525 68.3592 44.6596 67.0963 41.993C65.9964 39.6704 64.8883 38.122 63.0652 36.3603Z" fill="#FF24DC"/>
<path fill-rule="evenodd" clip-rule="evenodd" d="M54.3975 31.5773C57.7603 32.4004 60.5743 33.9531 63.0652 36.3603C64.8883 38.122 65.9964 39.6704 67.0963 41.993C68.3592 44.6596 68.8209 46.7525 68.8336 49.8681C68.8491 53.6615 68.0854 56.4821 66.1354 59.8363C65.0081 61.7753 61.7139 65.0263 59.6176 66.2686C56.4986 68.1168 52.4167 69.0947 48.8331 68.8519C40.486 68.2865 33.8549 62.7656 31.5899 54.4955C31.048 52.5169 30.9968 47.8236 31.4953 45.8149C33.2148 38.8858 38.492 33.4023 45.0797 31.6993C48.0793 30.9239 51.5421 30.8786 54.3975 31.5773ZM38.1424 46.6431C39.2919 42.2383 42.6886 38.8596 46.8746 37.957C48.5547 37.5948 51.3332 37.5899 53.0297 37.9461C54.8321 38.3247 56.8746 39.3524 58.2262 40.5609C61.8082 43.7634 63.1606 49.4029 61.5208 54.2987C59.5398 60.2124 53.5639 63.3698 46.9723 61.9856C42.7023 61.0888 39.3474 57.7817 38.1494 53.2886C37.6998 51.602 37.6963 48.3521 38.1424 46.6431Z" fill="#FF24DC"/>
</svg>
