<svg width="100" height="100" viewBox="0 0 100 100" fill="none" xmlns="http://www.w3.org/2000/svg">
<path fill-rule="evenodd" clip-rule="evenodd" d="M79.8818 26.1564C80.7601 26.6916 81.183 27.4233 81.1677 28.3809C81.1452 29.7917 71.3507 72.5291 70.907 73.1518C70.3603 73.9191 69.5577 74.28 68.3979 74.28C67.4305 74.28 67.2513 74.1781 62.0769 70.6902C59.1479 68.7157 55.6977 66.3806 54.4098 65.5008C53.1219 64.621 51.9648 63.9261 51.8382 63.9564C51.7117 63.9867 49.9348 65.5878 47.8894 67.5142C45.844 69.4407 43.963 71.1318 43.7096 71.2724C42.8006 71.7763 41.2914 71.4862 40.6209 70.6788C40.483 70.5128 39.1137 66.7007 37.5783 62.2077L34.7863 54.0383L27.2757 51.9789C23.1448 50.8463 19.6462 49.8448 19.5006 49.7537C19.355 49.6626 19.1117 49.2907 18.9599 48.9273C18.7207 48.3554 18.7219 48.1747 18.9697 47.5825C19.1268 47.2061 19.4583 46.8064 19.7061 46.6939C19.9538 46.5814 33.0577 41.8355 48.8258 36.1475C69.8464 28.5647 77.7301 25.8016 78.3757 25.7905C78.927 25.7811 79.4902 25.9178 79.8818 26.1564ZM37.2959 52.9968C37.4887 52.6562 42.4479 49.7097 53.5225 43.3558C62.2945 38.3229 69.5642 34.2004 69.6771 34.1946C69.9849 34.1789 70.3522 34.6094 70.3522 34.9855C70.3522 35.188 65.1023 39.6061 56.8982 46.308C49.4986 52.3529 43.372 57.4261 43.2836 57.582C43.1951 57.7379 42.8826 59.8395 42.5888 62.2522C42.2951 64.665 41.9916 66.7021 41.9145 66.7792C41.8374 66.8562 41.7016 66.8372 41.6125 66.7367C41.5235 66.6364 40.4534 63.6141 39.2344 60.0206C37.173 53.943 37.0376 53.4529 37.2959 52.9968Z" fill="white"/>
<path fill-rule="evenodd" clip-rule="evenodd" d="M37.2959 52.9968C37.4887 52.6562 42.4479 49.7097 53.5225 43.3558C62.2945 38.3229 69.5642 34.2004 69.6771 34.1946C69.9849 34.1789 70.3522 34.6094 70.3522 34.9855C70.3522 35.188 65.1023 39.6061 56.8982 46.308C49.4986 52.3529 43.372 57.4261 43.2836 57.582C43.1951 57.7379 42.8826 59.8395 42.5888 62.2522C42.2951 64.665 41.9916 66.7021 41.9145 66.7792C41.8374 66.8562 41.7016 66.8372 41.6125 66.7367C41.5235 66.6364 40.4534 63.6141 39.2344 60.0206C37.173 53.943 37.0376 53.4529 37.2959 52.9968Z" fill="white"/>
<path fill-rule="evenodd" clip-rule="evenodd" d="M10.1761 0.339039C7.5955 1.02438 6.02544 1.89847 4.03053 3.76068C2.54325 5.14897 1.2407 7.22359 0.567906 9.27493L0 11.0069V89.2426L0.551076 90.8073C1.99863 94.9178 5.07476 97.9909 9.19961 99.4477L10.7632 100H89.2368L90.8023 99.4492C94.9151 98.0024 97.9898 94.928 99.4474 90.8054L100 89.2426V11.0069L99.4321 9.27493C98.101 5.21606 94.981 2.08272 90.8004 0.606214L89.2368 0.0538702L50.3914 0.0145568C13.0724 -0.023192 11.4922 -0.0104786 10.1761 0.339039ZM79.8818 26.1564C80.7601 26.6916 81.183 27.4233 81.1677 28.3809C81.1452 29.7917 71.3507 72.5291 70.907 73.1518C70.3603 73.9191 69.5577 74.28 68.3979 74.28C67.4305 74.28 67.2513 74.1781 62.0769 70.6902C59.1479 68.7157 55.6977 66.3806 54.4098 65.5008C53.1219 64.621 51.9648 63.9261 51.8382 63.9564C51.7117 63.9867 49.9348 65.5878 47.8894 67.5142C45.844 69.4407 43.963 71.1318 43.7096 71.2724C42.8006 71.7763 41.2914 71.4862 40.6209 70.6788C40.483 70.5128 39.1137 66.7007 37.5783 62.2077L34.7863 54.0383L27.2757 51.9789C23.1448 50.8463 19.6462 49.8448 19.5006 49.7537C19.355 49.6626 19.1117 49.2907 18.9599 48.9273C18.7207 48.3554 18.7219 48.1747 18.9697 47.5825C19.1268 47.2061 19.4583 46.8064 19.7061 46.6939C19.9538 46.5814 33.0577 41.8355 48.8258 36.1475C69.8464 28.5647 77.7301 25.8016 78.3757 25.7905C78.927 25.7811 79.4902 25.9178 79.8818 26.1564ZM53.5225 43.3558C42.4479 49.7097 37.4887 52.6562 37.2959 52.9968C37.0376 53.4529 37.173 53.943 39.2344 60.0206C40.4534 63.6141 41.5235 66.6364 41.6125 66.7367C41.7016 66.8372 41.8374 66.8562 41.9145 66.7792C41.9916 66.7021 42.2951 64.665 42.5888 62.2522C42.8826 59.8395 43.1951 57.7379 43.2836 57.582C43.372 57.4261 49.4986 52.3529 56.8982 46.308C65.1023 39.6061 70.3522 35.188 70.3522 34.9855C70.3522 34.6094 69.9849 34.1789 69.6771 34.1946C69.5642 34.2004 62.2945 38.3229 53.5225 43.3558Z" fill="#3C3C3C" fill-opacity="0.2"/>
</svg>
