<svg width="100" height="100" viewBox="0 0 100 100" fill="none" xmlns="http://www.w3.org/2000/svg">
<path fill-rule="evenodd" clip-rule="evenodd" d="M28.5923 0.165795C20.6073 0.576298 15.5405 1.62376 11.4698 3.70519C5.91765 6.54413 2.50288 11.7195 1.14658 19.3506C0.182601 24.7749 0.116173 26.4062 0.0239564 46.9501C-0.0811555 70.3292 0.125161 75.7623 1.33961 81.6035C3.1355 90.2411 7.65668 95.4919 15.3068 97.8246C21.4218 99.6893 26.3232 99.9974 49.9083 100C70.809 100.002 76.1064 99.7727 81.6367 98.6247C91.2917 96.6204 96.6194 91.2839 98.633 81.5996C99.7695 76.1337 100 70.8036 100 49.9834C100 32.8206 99.8679 27.5769 99.3144 22.7634C98.4266 15.0434 96.3424 10.0273 92.5714 6.53592C88.1511 2.44339 82.467 0.764649 70.9887 0.161887C66.8349 -0.0561625 32.8493 -0.0530363 28.5923 0.165795ZM28.1402 31.4287C29.1304 31.7038 29.7102 32.4717 30.4304 34.4617C33.0129 41.5993 36.7617 48.5321 39.7881 51.7675C41.0809 53.1497 41.7952 53.5689 42.6826 53.4666C43.7155 53.3474 43.7448 53.1059 43.6882 45.1965L43.6362 37.9673L43.1167 36.8589C42.8309 36.2493 42.2453 35.2821 41.8155 34.7096C40.9725 33.5868 40.8423 33.1809 41.0596 32.3535C41.3386 31.2904 41.7561 31.2265 48.4194 31.2265C55.3898 31.2265 55.6799 31.2761 56.0279 32.5297C56.159 33.0018 56.2361 36.2207 56.2367 41.2497C56.2377 47.8623 56.2866 49.3156 56.5237 49.774C57.046 50.7841 57.7355 50.732 59.31 49.5636C62.1011 47.4921 66.2296 41.1702 69.5861 33.8275C70.7199 31.3474 70.743 31.3385 76.1662 31.2634C81.0967 31.1952 81.9348 31.3289 82.3777 32.2531C82.595 32.7063 82.5878 32.9785 82.332 33.9765C81.7238 36.3509 78.5838 41.8535 73.8926 48.7662C72.643 50.6075 71.8679 51.9389 71.8679 52.244C71.8679 53.1268 72.4464 53.8989 75.3554 56.8987C79.4268 61.0971 82.1267 64.4482 83.2431 66.6888C83.9128 68.0327 84.0357 68.6669 83.7782 69.4473C83.3917 70.618 83.0207 70.6942 77.7028 70.6942C73.2746 70.6942 72.9126 70.6673 72.1106 70.279C71.5139 69.9902 70.3999 68.9342 68.452 66.811C63.3542 61.2548 60.3355 58.9711 58.0883 58.9711C57.1968 58.9711 56.9897 59.045 56.6429 59.486C56.261 59.9715 56.2379 60.2464 56.2375 64.3217C56.2373 69.5 56.1529 69.806 54.5772 70.3437C53.292 70.7823 49.4527 70.8074 47.2598 70.3912C42.4167 69.4725 37.6876 66.8778 33.446 62.8124C27.5822 57.192 20.3023 44.7704 17.9387 36.352C17.0329 33.126 17.2025 31.8435 18.5881 31.4428C19.4499 31.1937 27.2522 31.1821 28.1402 31.4287Z" fill="#3C3C3C" fill-opacity="0.2"/>
<path d="M28.1402 31.4287C29.1304 31.7038 29.7102 32.4717 30.4304 34.4617C33.0129 41.5993 36.7617 48.5321 39.7881 51.7675C41.0809 53.1497 41.7952 53.5689 42.6826 53.4666C43.7155 53.3474 43.7448 53.1059 43.6882 45.1965L43.6362 37.9673L43.1167 36.8589C42.8309 36.2493 42.2453 35.2821 41.8155 34.7096C40.9725 33.5868 40.8423 33.1809 41.0596 32.3535C41.3386 31.2904 41.7561 31.2265 48.4194 31.2265C55.3898 31.2265 55.6799 31.2761 56.0279 32.5297C56.159 33.0018 56.2361 36.2207 56.2367 41.2497C56.2377 47.8623 56.2866 49.3156 56.5237 49.774C57.046 50.7841 57.7355 50.732 59.31 49.5636C62.1011 47.4921 66.2296 41.1702 69.5861 33.8275C70.7199 31.3474 70.743 31.3385 76.1662 31.2634C81.0967 31.1952 81.9348 31.3289 82.3777 32.2531C82.595 32.7063 82.5878 32.9785 82.332 33.9765C81.7238 36.3509 78.5838 41.8535 73.8926 48.7662C72.643 50.6075 71.8679 51.9389 71.8679 52.244C71.8679 53.1268 72.4464 53.8989 75.3554 56.8987C79.4268 61.0971 82.1267 64.4482 83.2431 66.6888C83.9128 68.0327 84.0357 68.6669 83.7782 69.4473C83.3917 70.618 83.0207 70.6942 77.7028 70.6942C73.2746 70.6942 72.9126 70.6673 72.1106 70.279C71.5139 69.9902 70.3999 68.9342 68.452 66.811C63.3542 61.2548 60.3355 58.9711 58.0883 58.9711C57.1968 58.9711 56.9897 59.045 56.6429 59.486C56.261 59.9715 56.2379 60.2464 56.2375 64.3217C56.2373 69.5 56.1529 69.806 54.5772 70.3437C53.292 70.7823 49.4527 70.8074 47.2598 70.3912C42.4167 69.4725 37.6876 66.8778 33.446 62.8124C27.5822 57.192 20.3023 44.7704 17.9387 36.352C17.0329 33.126 17.2025 31.8435 18.5881 31.4428C19.4499 31.1937 27.2522 31.1821 28.1402 31.4287Z" fill="white"/>
</svg>
