<svg width="430" height="306" viewBox="0 0 430 306" fill="none" xmlns="http://www.w3.org/2000/svg">
<rect width="430" height="306" rx="5" fill="#1B1B1B" fill-opacity="0.5"/>
<path fill-rule="evenodd" clip-rule="evenodd" d="M150 130.662V143.319L152.302 143.317C153.568 143.316 154.944 143.266 155.361 143.207C158.762 142.722 161.776 140.948 163.802 138.24C167.591 133.176 167.097 126.261 162.623 121.742C161.073 120.178 159.283 119.102 157.244 118.509C155.852 118.104 154.882 118.005 152.321 118.005H150V130.662ZM180.815 118.125C176.215 118.79 172.184 122.199 170.683 126.694C168.339 133.71 172.615 141.291 179.887 143.014C180.647 143.194 181.319 143.243 183.604 143.288L186.393 143.343V130.674V118.005L183.929 118.018C182.574 118.025 181.172 118.074 180.815 118.125ZM193.893 130.635L193.921 143.265L198.741 143.297C203.938 143.333 204.966 143.269 206.538 142.812C209.935 141.824 212.939 139.238 214.454 135.994C217.713 129.018 213.907 120.621 206.527 118.505C204.955 118.055 204.195 118.005 198.895 118.005H193.866L193.893 130.635ZM237.3 130.662V143.324L239.276 143.294L241.253 143.265V130.662V118.059L239.276 118.03L237.3 118V130.662ZM244.34 130.662V143.319H246.29H248.239V142.561V141.803L248.735 142.118C250.062 142.962 251.796 143.379 253.595 143.285C255.01 143.212 255.778 143.021 256.977 142.443C261.532 140.25 263.267 134.638 260.77 130.176C260.154 129.074 258.644 127.558 257.554 126.947C254.832 125.42 251.453 125.388 248.963 126.866C248.616 127.071 248.311 127.24 248.286 127.24C248.26 127.24 248.239 125.162 248.239 122.622V118.005H246.29H244.34V130.662ZM204.536 122.082C209.456 122.943 212.646 127.857 211.463 132.752C211.222 133.75 210.458 135.304 209.822 136.09C208.673 137.511 206.958 138.624 205.185 139.1C204.417 139.306 203.952 139.338 201.096 139.381L197.874 139.429V130.673V121.916H200.73C202.807 121.916 203.845 121.961 204.536 122.082ZM225.013 125.837C222.047 126.24 219.314 128.363 218.15 131.171C217.101 133.701 217.305 136.657 218.693 139.028C219.27 140.014 220.774 141.522 221.757 142.101C222.174 142.346 222.978 142.707 223.544 142.902C224.519 143.239 224.656 143.258 226.144 143.261C227.324 143.263 227.889 143.215 228.418 143.07C233.809 141.584 236.528 135.534 234.035 130.572C233.45 129.407 232.233 128.033 231.097 127.254C229.44 126.119 227.047 125.562 225.013 125.837ZM261.758 125.775C261.724 125.809 263.28 129.407 265.214 133.772L268.731 141.707L267.832 143.726C267.337 144.837 266.815 145.886 266.671 146.057C266.11 146.726 265.131 146.914 264.26 146.52C263.998 146.401 263.783 146.357 263.762 146.418C263.742 146.476 263.389 147.271 262.978 148.184L262.232 149.844L262.757 150.111C263.708 150.595 264.858 150.924 265.596 150.924C267.176 150.924 268.816 150.073 269.69 148.798C270.011 148.331 279.842 126.442 279.947 125.963L280 125.719H277.943C276.425 125.719 275.858 125.754 275.782 125.854C275.724 125.929 274.61 128.42 273.304 131.391C271.999 134.361 270.906 136.792 270.877 136.793C270.847 136.794 269.726 134.315 268.385 131.284L265.948 125.773L263.884 125.744C262.748 125.727 261.792 125.742 261.758 125.775ZM227.248 129.424C230.351 130.073 232.195 133.454 231.051 136.398C230.114 138.808 227.452 140.205 225.011 139.567C223.131 139.076 221.587 137.527 221.17 135.714C221.007 135.003 221.028 133.899 221.219 133.165C221.896 130.558 224.612 128.872 227.248 129.424ZM254.218 129.424C255.741 129.741 257.113 130.816 257.809 132.237C259.319 135.322 257.494 138.971 254.11 139.631C251.759 140.09 249.213 138.661 248.339 136.392C247.98 135.462 247.929 133.996 248.222 133.032C249.004 130.456 251.62 128.882 254.218 129.424ZM237.354 154.445C234.642 154.974 232.83 156.761 232.368 159.361C232.178 160.429 232.178 160.866 232.368 161.934C232.794 164.333 234.558 166.234 236.916 166.838C237.758 167.054 239.655 167.054 240.499 166.839C243.366 166.108 245.207 163.687 245.207 160.648C245.207 159.62 244.924 158.387 244.494 157.536C243.817 156.194 242.223 154.976 240.603 154.562C239.664 154.322 238.245 154.271 237.354 154.445ZM250.551 154.411C249.491 154.589 248.769 154.938 248.122 155.587C247.34 156.372 247.109 157.01 247.179 158.189C247.237 159.169 247.484 159.723 248.118 160.297C248.674 160.801 249.117 161.021 250.46 161.463C252.363 162.088 252.79 162.41 252.864 163.279C252.925 163.984 252.657 164.481 252.033 164.824C251.041 165.37 249.572 165.099 248.525 164.178L248.117 163.818L247.396 164.514C246.999 164.897 246.652 165.224 246.625 165.24C246.482 165.323 247.414 166.086 248.048 166.404C249.025 166.894 249.783 167.037 251.101 166.978C252.477 166.917 253.218 166.646 254.019 165.912C254.861 165.14 255.114 164.513 255.116 163.201C255.117 162.02 254.951 161.588 254.233 160.903C253.699 160.394 253.006 160.052 251.486 159.546C249.939 159.031 249.43 158.616 249.431 157.867C249.432 156.865 250.19 156.254 251.434 156.251C252.148 156.25 253.006 156.578 253.374 156.993C253.487 157.121 253.614 157.225 253.656 157.225C253.698 157.225 254.037 156.881 254.41 156.46C255.072 155.713 255.083 155.69 254.892 155.478C254.57 155.12 253.215 154.521 252.463 154.404C251.66 154.278 251.337 154.279 250.551 154.411ZM198.977 155.021C198.571 155.836 193.975 166.53 193.975 166.66C193.975 166.759 194.284 166.785 195.179 166.763L196.383 166.732L196.932 165.345L197.479 163.958L200.027 163.987L202.574 164.016L203.131 165.374L203.689 166.732L204.951 166.762C205.646 166.779 206.211 166.755 206.208 166.708C206.205 166.661 205.046 163.934 203.632 160.648L201.061 154.672L200.122 154.641L199.182 154.61L198.977 155.021ZM205.348 155.595V156.574H207.189H209.03V161.684V166.794L210.14 166.763L211.251 166.732L211.279 161.653L211.307 156.574H213.151H214.996L214.965 155.623L214.933 154.672L210.14 154.644L205.348 154.616V155.595ZM217.154 160.703V166.794L218.21 166.763L219.266 166.732L219.32 162.139L219.374 157.546L220.771 161.324C221.54 163.402 222.312 165.483 222.488 165.949L222.808 166.795L223.582 166.764L224.356 166.732L226.054 162.233C226.987 159.758 227.791 157.643 227.841 157.531C227.89 157.42 227.931 159.441 227.931 162.03V166.732L229.041 166.763L230.151 166.794V160.706V154.618H228.431H226.71L225.208 158.799C224.382 161.099 223.681 162.981 223.65 162.982C223.62 162.983 222.913 161.114 222.08 158.828L220.565 154.672L218.86 154.642L217.154 154.612V160.703ZM240.462 156.706C243.43 158.076 243.571 162.971 240.689 164.528C238.613 165.65 236.115 164.836 235.113 162.712C234.771 161.987 234.754 161.893 234.756 160.702C234.759 159.201 234.98 158.519 235.74 157.671C236.651 156.654 237.411 156.343 238.87 156.39C239.649 156.415 239.969 156.478 240.462 156.706ZM200.918 159.759L201.742 161.951L200.063 161.981C199.14 161.998 198.363 161.99 198.337 161.963C198.27 161.896 199.973 157.452 200.04 157.516C200.07 157.544 200.465 158.553 200.918 159.759Z" fill="white"/>
<path d="M155.586 244.757C157.03 244.757 158.278 245.029 159.329 245.574C160.393 246.106 161.204 246.872 161.761 247.873C162.331 248.874 162.616 250.052 162.616 251.407C162.616 252.762 162.331 253.94 161.761 254.941C161.204 255.929 160.393 256.689 159.329 257.221C158.278 257.74 157.03 258 155.586 258H151.463V244.757H155.586ZM155.586 256.575C157.296 256.575 158.601 256.125 159.5 255.226C160.399 254.314 160.849 253.041 160.849 251.407C160.849 249.76 160.393 248.475 159.481 247.55C158.582 246.625 157.283 246.163 155.586 246.163H153.192V256.575H155.586ZM170.901 258.133C169.672 258.133 168.551 257.848 167.538 257.278C166.524 256.695 165.72 255.891 165.125 254.865C164.542 253.826 164.251 252.661 164.251 251.369C164.251 250.077 164.542 248.918 165.125 247.892C165.72 246.853 166.524 246.049 167.538 245.479C168.551 244.896 169.672 244.605 170.901 244.605C172.142 244.605 173.269 244.896 174.283 245.479C175.296 246.049 176.094 246.847 176.677 247.873C177.259 248.899 177.551 250.064 177.551 251.369C177.551 252.674 177.259 253.839 176.677 254.865C176.094 255.891 175.296 256.695 174.283 257.278C173.269 257.848 172.142 258.133 170.901 258.133ZM170.901 256.632C171.825 256.632 172.655 256.417 173.39 255.986C174.137 255.555 174.72 254.941 175.138 254.143C175.568 253.345 175.784 252.42 175.784 251.369C175.784 250.305 175.568 249.38 175.138 248.595C174.72 247.797 174.143 247.183 173.409 246.752C172.674 246.321 171.838 246.106 170.901 246.106C169.963 246.106 169.127 246.321 168.393 246.752C167.658 247.183 167.075 247.797 166.645 248.595C166.227 249.38 166.018 250.305 166.018 251.369C166.018 252.42 166.227 253.345 166.645 254.143C167.075 254.941 167.658 255.555 168.393 255.986C169.14 256.417 169.976 256.632 170.901 256.632ZM181.562 256.594H186.198V258H179.833V244.757H181.562V256.594ZM194.665 251.179C195.147 251.255 195.584 251.451 195.976 251.768C196.382 252.085 196.698 252.477 196.926 252.946C197.167 253.415 197.287 253.915 197.287 254.447C197.287 255.118 197.116 255.726 196.774 256.271C196.432 256.803 195.932 257.227 195.273 257.544C194.627 257.848 193.861 258 192.974 258H188.034V244.757H192.784C193.684 244.757 194.45 244.909 195.083 245.213C195.717 245.504 196.192 245.903 196.508 246.41C196.825 246.917 196.983 247.487 196.983 248.12C196.983 248.905 196.768 249.558 196.337 250.077C195.919 250.584 195.362 250.951 194.665 251.179ZM189.763 250.476H192.67C193.481 250.476 194.108 250.286 194.551 249.906C194.995 249.526 195.216 249 195.216 248.329C195.216 247.658 194.995 247.132 194.551 246.752C194.108 246.372 193.468 246.182 192.632 246.182H189.763V250.476ZM192.822 256.575C193.684 256.575 194.355 256.372 194.836 255.967C195.318 255.562 195.558 254.998 195.558 254.276C195.558 253.541 195.305 252.965 194.798 252.547C194.292 252.116 193.614 251.901 192.765 251.901H189.763V256.575H192.822ZM208.959 244.757L204.646 253.003V258H202.917V253.003L198.585 244.757H200.504L203.772 251.464L207.04 244.757H208.959ZM223.676 255.055H217.9L216.836 258H215.012L219.8 244.833H221.795L226.564 258H224.74L223.676 255.055ZM223.182 253.649L220.788 246.961L218.394 253.649H223.182ZM236.802 244.757V246.163H233.192V258H231.463V246.163H227.834V244.757H236.802ZM252.363 244.852V258H250.634V248.196L246.264 258H245.048L240.659 248.177V258H238.93V244.852H240.792L245.656 255.72L250.52 244.852H252.363ZM261.299 258.133C260.07 258.133 258.949 257.848 257.936 257.278C256.923 256.695 256.118 255.891 255.523 254.865C254.94 253.826 254.649 252.661 254.649 251.369C254.649 250.077 254.94 248.918 255.523 247.892C256.118 246.853 256.923 246.049 257.936 245.479C258.949 244.896 260.07 244.605 261.299 244.605C262.54 244.605 263.668 244.896 264.681 245.479C265.694 246.049 266.492 246.847 267.075 247.873C267.658 248.899 267.949 250.064 267.949 251.369C267.949 252.674 267.658 253.839 267.075 254.865C266.492 255.891 265.694 256.695 264.681 257.278C263.668 257.848 262.54 258.133 261.299 258.133ZM261.299 256.632C262.224 256.632 263.053 256.417 263.788 255.986C264.535 255.555 265.118 254.941 265.536 254.143C265.967 253.345 266.182 252.42 266.182 251.369C266.182 250.305 265.967 249.38 265.536 248.595C265.118 247.797 264.542 247.183 263.807 246.752C263.072 246.321 262.236 246.106 261.299 246.106C260.362 246.106 259.526 246.321 258.791 246.752C258.056 247.183 257.474 247.797 257.043 248.595C256.625 249.38 256.416 250.305 256.416 251.369C256.416 252.42 256.625 253.345 257.043 254.143C257.474 254.941 258.056 255.555 258.791 255.986C259.538 256.417 260.374 256.632 261.299 256.632ZM274.431 258.133C273.557 258.133 272.771 257.981 272.075 257.677C271.391 257.36 270.852 256.93 270.46 256.385C270.067 255.828 269.864 255.188 269.852 254.466H271.695C271.758 255.087 272.011 255.612 272.455 256.043C272.911 256.461 273.569 256.67 274.431 256.67C275.254 256.67 275.9 256.467 276.369 256.062C276.85 255.644 277.091 255.112 277.091 254.466C277.091 253.959 276.951 253.548 276.673 253.231C276.394 252.914 276.046 252.674 275.628 252.509C275.21 252.344 274.646 252.167 273.937 251.977C273.063 251.749 272.36 251.521 271.828 251.293C271.308 251.065 270.859 250.71 270.479 250.229C270.111 249.735 269.928 249.076 269.928 248.253C269.928 247.531 270.111 246.891 270.479 246.334C270.846 245.777 271.359 245.346 272.018 245.042C272.689 244.738 273.455 244.586 274.317 244.586C275.558 244.586 276.571 244.896 277.357 245.517C278.155 246.138 278.604 246.961 278.706 247.987H276.806C276.742 247.48 276.476 247.037 276.008 246.657C275.539 246.264 274.918 246.068 274.146 246.068C273.424 246.068 272.835 246.258 272.379 246.638C271.923 247.005 271.695 247.525 271.695 248.196C271.695 248.677 271.828 249.07 272.094 249.374C272.372 249.678 272.708 249.912 273.101 250.077C273.506 250.229 274.07 250.406 274.792 250.609C275.666 250.85 276.369 251.09 276.901 251.331C277.433 251.559 277.889 251.92 278.269 252.414C278.649 252.895 278.839 253.554 278.839 254.39C278.839 255.036 278.668 255.644 278.326 256.214C277.984 256.784 277.477 257.246 276.806 257.601C276.134 257.956 275.343 258.133 274.431 258.133Z" fill="url(#paint0_linear_434_222)"/>
<defs>
<linearGradient id="paint0_linear_434_222" x1="134.223" y1="237" x2="300.823" y2="250.897" gradientUnits="userSpaceOnUse">
<stop offset="0.0729167" stop-color="#FF2424"/>
<stop offset="0.390625" stop-color="#6EFF24"/>
<stop offset="0.651042" stop-color="#B360E0"/>
<stop offset="1" stop-color="#57A8D6"/>
</linearGradient>
</defs>
</svg>
