<svg width="430" height="306" viewBox="0 0 430 306" fill="none" xmlns="http://www.w3.org/2000/svg">
<rect width="430" height="306" rx="5" fill="#1B1B1B" fill-opacity="0.5"/>
<path d="M201.444 109.694H199.277V174.374H201.444V109.694Z" fill="white"/>
<path d="M208.989 143.628H219.107V140.378H208.989V135.679L202.662 142.003L208.989 148.328V143.628Z" fill="white"/>
<path d="M191.732 140.38H181.613V143.63H191.732V148.328L198.058 142.005L191.732 135.679V140.38Z" fill="white"/>
<path d="M200.377 83.5349L196.044 85.8392V98.3926C173.848 100.561 156.498 119.267 156.498 142.033C156.498 164.797 173.848 183.505 196.044 185.675V198.231L200.377 200.533L273.498 171.736V112.332L200.377 83.5349ZM159.748 142.033C159.748 119.642 177.966 101.425 200.36 101.425C222.75 101.425 240.968 119.642 240.968 142.033C240.968 164.425 222.75 182.643 200.36 182.643C177.966 182.643 159.748 164.425 159.748 142.033ZM270.248 169.522L203.627 195.759V185.728C226.318 184.051 244.218 165.151 244.218 142.033C244.218 118.912 226.318 100.017 203.627 98.3398V88.3083L270.248 114.545V169.522Z" fill="white"/>
<path d="M148.982 244.434V256.48H150.711V261.572H149.077V258H139.748V261.572H138.114V256.48H139.159C139.615 255.695 140.046 254.814 140.451 253.839C140.869 252.864 141.236 251.844 141.553 250.78C141.87 249.703 142.129 248.627 142.332 247.55C142.535 246.473 142.661 245.435 142.712 244.434H148.982ZM144.213 245.973C144.162 246.708 144.036 247.537 143.833 248.462C143.643 249.387 143.396 250.337 143.092 251.312C142.801 252.275 142.471 253.206 142.104 254.105C141.749 255.004 141.369 255.796 140.964 256.48H147.291V245.973H144.213ZM152.999 244.434H154.595V251.882C154.595 252.199 154.588 252.547 154.576 252.927C154.576 253.294 154.569 253.662 154.557 254.029C154.544 254.396 154.525 254.726 154.5 255.017C154.487 255.296 154.474 255.511 154.462 255.663H154.538L162.005 244.434H163.905V258H162.309V250.628C162.309 250.286 162.315 249.919 162.328 249.526C162.34 249.121 162.353 248.734 162.366 248.367C162.391 247.987 162.41 247.651 162.423 247.36C162.435 247.069 162.448 246.853 162.461 246.714H162.385L154.899 258H152.999V244.434ZM175.582 247.607C175.582 248.532 175.29 249.266 174.708 249.811C174.125 250.343 173.346 250.685 172.371 250.837V250.913C173.511 251.065 174.378 251.42 174.974 251.977C175.569 252.534 175.867 253.263 175.867 254.162C175.867 254.96 175.664 255.663 175.259 256.271C174.853 256.866 174.245 257.335 173.435 257.677C172.624 258.019 171.611 258.19 170.395 258.19C169.66 258.19 168.957 258.133 168.286 258.019C167.627 257.918 167.013 257.728 166.443 257.449V255.891C166.835 256.081 167.253 256.246 167.697 256.385C168.153 256.512 168.609 256.613 169.065 256.689C169.521 256.752 169.958 256.784 170.376 256.784C171.592 256.784 172.51 256.556 173.131 256.1C173.764 255.644 174.081 254.998 174.081 254.162C174.081 253.301 173.713 252.674 172.979 252.281C172.244 251.888 171.218 251.692 169.901 251.692H167.963V250.267H169.806C170.705 250.267 171.446 250.166 172.029 249.963C172.624 249.76 173.067 249.475 173.359 249.108C173.663 248.728 173.815 248.285 173.815 247.778C173.815 247.094 173.561 246.568 173.055 246.201C172.548 245.834 171.889 245.65 171.079 245.65C170.23 245.65 169.521 245.758 168.951 245.973C168.393 246.188 167.849 246.467 167.317 246.809L166.5 245.65C166.854 245.384 167.26 245.15 167.716 244.947C168.184 244.732 168.704 244.561 169.274 244.434C169.844 244.307 170.452 244.244 171.098 244.244C172.073 244.244 172.89 244.39 173.549 244.681C174.22 244.972 174.727 245.371 175.069 245.878C175.411 246.372 175.582 246.948 175.582 247.607ZM187.246 258L185.612 253.801H180.235L178.62 258H176.891L182.192 244.377H183.731L189.013 258H187.246ZM183.579 248.177C183.541 248.076 183.477 247.892 183.389 247.626C183.3 247.36 183.211 247.088 183.123 246.809C183.047 246.518 182.983 246.296 182.933 246.144C182.869 246.397 182.8 246.657 182.724 246.923C182.66 247.176 182.591 247.411 182.515 247.626C182.451 247.841 182.394 248.025 182.344 248.177L180.805 252.281H185.099L183.579 248.177ZM200.121 240.216C200.071 240.849 199.912 241.381 199.646 241.812C199.393 242.243 199.013 242.566 198.506 242.781C198 242.996 197.341 243.104 196.53 243.104C195.707 243.104 195.042 242.996 194.535 242.781C194.041 242.566 193.68 242.249 193.452 241.831C193.224 241.4 193.085 240.862 193.034 240.216H194.592C194.656 240.9 194.833 241.362 195.124 241.603C195.428 241.831 195.91 241.945 196.568 241.945C197.151 241.945 197.607 241.825 197.936 241.584C198.278 241.331 198.481 240.875 198.544 240.216H200.121ZM190.887 244.434H192.483V251.882C192.483 252.199 192.477 252.547 192.464 252.927C192.464 253.294 192.458 253.662 192.445 254.029C192.433 254.396 192.414 254.726 192.388 255.017C192.376 255.296 192.363 255.511 192.35 255.663H192.426L199.893 244.434H201.793V258H200.197V250.628C200.197 250.286 200.204 249.919 200.216 249.526C200.229 249.121 200.242 248.734 200.254 248.367C200.28 247.987 200.299 247.651 200.311 247.36C200.324 247.069 200.337 246.853 200.349 246.714H200.273L192.787 258H190.887V244.434ZM215.826 258H214.116V251.673H207.162V258H205.452V244.434H207.162V250.172H214.116V244.434H215.826V258ZM232.049 255.055H226.273L225.209 258H223.385L228.173 244.833H230.168L234.937 258H233.113L232.049 255.055ZM231.555 253.649L229.161 246.961L226.767 253.649H231.555ZM238.753 244.757V258H237.024V244.757H238.753ZM248.672 258L245.518 252.585H243.428V258H241.699V244.757H245.974C246.975 244.757 247.817 244.928 248.501 245.27C249.198 245.612 249.717 246.074 250.059 246.657C250.401 247.24 250.572 247.905 250.572 248.652C250.572 249.564 250.306 250.368 249.774 251.065C249.255 251.762 248.47 252.224 247.418 252.452L250.743 258H248.672ZM243.428 251.198H245.974C246.912 251.198 247.615 250.97 248.083 250.514C248.552 250.045 248.786 249.425 248.786 248.652C248.786 247.867 248.552 247.259 248.083 246.828C247.627 246.397 246.924 246.182 245.974 246.182H243.428V251.198ZM257.458 258.133C256.584 258.133 255.799 257.981 255.102 257.677C254.418 257.36 253.88 256.93 253.487 256.385C253.094 255.828 252.892 255.188 252.879 254.466H254.722C254.785 255.087 255.039 255.612 255.482 256.043C255.938 256.461 256.597 256.67 257.458 256.67C258.281 256.67 258.927 256.467 259.396 256.062C259.877 255.644 260.118 255.112 260.118 254.466C260.118 253.959 259.979 253.548 259.7 253.231C259.421 252.914 259.073 252.674 258.655 252.509C258.237 252.344 257.673 252.167 256.964 251.977C256.09 251.749 255.387 251.521 254.855 251.293C254.336 251.065 253.886 250.71 253.506 250.229C253.139 249.735 252.955 249.076 252.955 248.253C252.955 247.531 253.139 246.891 253.506 246.334C253.873 245.777 254.386 245.346 255.045 245.042C255.716 244.738 256.483 244.586 257.344 244.586C258.585 244.586 259.599 244.896 260.384 245.517C261.182 246.138 261.632 246.961 261.733 247.987H259.833C259.77 247.48 259.504 247.037 259.035 246.657C258.566 246.264 257.946 246.068 257.173 246.068C256.451 246.068 255.862 246.258 255.406 246.638C254.95 247.005 254.722 247.525 254.722 248.196C254.722 248.677 254.855 249.07 255.121 249.374C255.4 249.678 255.735 249.912 256.128 250.077C256.533 250.229 257.097 250.406 257.819 250.609C258.693 250.85 259.396 251.09 259.928 251.331C260.46 251.559 260.916 251.92 261.296 252.414C261.676 252.895 261.866 253.554 261.866 254.39C261.866 255.036 261.695 255.644 261.353 256.214C261.011 256.784 260.504 257.246 259.833 257.601C259.162 257.956 258.37 258.133 257.458 258.133ZM266.139 256.594H270.775V258H264.41V244.757H266.139V256.594ZM274.34 244.757V258H272.611V244.757H274.34ZM290.72 244.852V258H288.991V248.196L284.621 258H283.405L279.016 248.177V258H277.287V244.852H279.149L284.013 255.72L288.877 244.852H290.72Z" fill="url(#paint0_linear_434_212)"/>
<defs>
<linearGradient id="paint0_linear_434_212" x1="119.189" y1="237" x2="317.25" y2="256.699" gradientUnits="userSpaceOnUse">
<stop offset="0.0729167" stop-color="#FF2424"/>
<stop offset="0.390625" stop-color="#6EFF24"/>
<stop offset="0.651042" stop-color="#B360E0"/>
<stop offset="1" stop-color="#57A8D6"/>
</linearGradient>
</defs>
</svg>
