<svg width="430" height="306" viewBox="0 0 430 306" fill="none" xmlns="http://www.w3.org/2000/svg">
<rect width="430" height="306" rx="5" fill="#1B1B1B" fill-opacity="0.5"/>
<g clip-path="url(#clip0_434_189)">
<path d="M215 105.167C204.817 105.167 195.5 109.5 188.783 116.217C187.7 116 186.617 116 185.533 116C171.667 116 160.4 126.833 159.533 140.483H150V143.733H159.533C160.4 157.383 171.667 168 185.533 168C186.617 168 187.7 168 188.783 167.783C195.5 174.717 204.817 178.833 215 178.833C235.367 178.833 251.833 162.367 251.833 142C251.833 121.633 235.367 105.167 215 105.167ZM215 175.583C206.333 175.583 198.533 172.333 192.683 166.917C203.517 163.883 211.533 153.917 211.533 142C211.533 130.083 203.517 120.117 192.683 117.083C198.533 111.667 206.333 108.417 215 108.417C233.417 108.417 248.583 123.583 248.583 142C248.583 160.417 233.417 175.583 215 175.583Z" fill="white"/>
<path d="M216.733 77H213.483V98.45H216.733V77Z" fill="white"/>
<path d="M216.733 185.55H213.483V207H216.733V185.55Z" fill="white"/>
<path d="M167.797 97.1409L182.964 112.308L185.263 110.01L170.095 94.8428L167.797 97.1409Z" fill="white"/>
<path d="M262.138 186.89L246.97 171.722L244.672 174.02L259.84 189.188L262.138 186.89Z" fill="white"/>
<path d="M280 140.267H258.55V143.517H280V140.267Z" fill="white"/>
<path d="M185.417 174.071L183.119 171.773L167.952 186.94L170.25 189.239L185.417 174.071Z" fill="white"/>
<path d="M244.62 110.061L246.918 112.359L262.085 97.1921L259.787 94.894L244.62 110.061Z" fill="white"/>
</g>
<path d="M207.666 244.757V258H205.937V251.996H199.192V258H197.463V244.757H199.192V250.571H205.937V244.757H207.666ZM214.741 244.757C216.185 244.757 217.433 245.029 218.484 245.574C219.548 246.106 220.359 246.872 220.916 247.873C221.486 248.874 221.771 250.052 221.771 251.407C221.771 252.762 221.486 253.94 220.916 254.941C220.359 255.929 219.548 256.689 218.484 257.221C217.433 257.74 216.185 258 214.741 258H210.618V244.757H214.741ZM214.741 256.575C216.451 256.575 217.756 256.125 218.655 255.226C219.555 254.314 220.004 253.041 220.004 251.407C220.004 249.76 219.548 248.475 218.636 247.55C217.737 246.625 216.439 246.163 214.741 246.163H212.347V256.575H214.741ZM231.025 258L227.871 252.585H225.781V258H224.052V244.757H228.327C229.328 244.757 230.17 244.928 230.854 245.27C231.551 245.612 232.07 246.074 232.412 246.657C232.754 247.24 232.925 247.905 232.925 248.652C232.925 249.564 232.659 250.368 232.127 251.065C231.608 251.762 230.822 252.224 229.771 252.452L233.096 258H231.025ZM225.781 251.198H228.327C229.264 251.198 229.967 250.97 230.436 250.514C230.905 250.045 231.139 249.425 231.139 248.652C231.139 247.867 230.905 247.259 230.436 246.828C229.98 246.397 229.277 246.182 228.327 246.182H225.781V251.198Z" fill="url(#paint0_linear_434_189)"/>
<defs>
<linearGradient id="paint0_linear_434_189" x1="191.267" y1="237" x2="241.563" y2="238.259" gradientUnits="userSpaceOnUse">
<stop stop-color="#B360E0"/>
<stop offset="0.369792" stop-color="#57A8D6"/>
<stop offset="0.682292" stop-color="#6EFF24"/>
<stop offset="1" stop-color="#FF2424"/>
</linearGradient>
<clipPath id="clip0_434_189">
<rect width="130" height="130" fill="white" transform="translate(150 77)"/>
</clipPath>
</defs>
</svg>
