<svg width="430" height="306" viewBox="0 0 430 306" fill="none" xmlns="http://www.w3.org/2000/svg">
<rect width="430" height="306" rx="5" fill="#1B1B1B" fill-opacity="0.5"/>
<path d="M256.302 86.7502C263.993 86.7502 270.25 93.007 270.25 100.698V183.303C270.25 190.993 263.993 197.25 256.302 197.25H173.697C166.007 197.25 159.75 190.993 159.75 183.303V100.698C159.75 93.007 166.007 86.7502 173.697 86.7502H256.302ZM256.302 83.5002H173.697C164.239 83.5002 156.5 91.2391 156.5 100.698V183.303C156.5 192.761 164.239 200.5 173.697 200.5H256.302C265.761 200.5 273.5 192.761 273.5 183.303V100.698C273.5 91.2391 265.761 83.5002 256.302 83.5002Z" fill="white"/>
<path d="M168.659 136.145H173.42C174.143 136.145 174.809 136.276 175.419 136.535C176.028 136.796 176.555 137.149 176.999 137.592C177.444 138.036 177.793 138.561 178.046 139.163C178.3 139.766 178.427 140.41 178.427 141.096C178.427 141.781 178.3 142.429 178.046 143.038C177.793 143.647 177.444 144.174 176.999 144.619C176.555 145.064 176.025 145.415 175.409 145.675C174.793 145.936 174.124 146.066 173.4 146.066H171.249V150.045H168.659V136.145ZM171.249 138.544V143.667H173.229C173.609 143.667 173.959 143.6 174.276 143.466C174.593 143.334 174.867 143.15 175.095 142.914C175.324 142.68 175.501 142.407 175.628 142.096C175.755 141.785 175.819 141.452 175.819 141.096C175.819 140.741 175.755 140.408 175.628 140.097C175.501 139.786 175.324 139.516 175.095 139.287C174.867 139.058 174.593 138.877 174.276 138.745C173.959 138.611 173.609 138.544 173.229 138.544H171.249Z" fill="white"/>
<path d="M179.665 138.906H182.216V140.562C182.737 139.458 183.689 138.906 185.072 138.906C185.479 138.906 185.843 138.951 186.168 139.039C186.491 139.128 186.78 139.242 187.033 139.382L186.063 141.82C185.872 141.693 185.659 141.588 185.424 141.505C185.189 141.422 184.888 141.382 184.52 141.382C183.771 141.382 183.203 141.594 182.817 142.019C182.429 142.444 182.235 143.14 182.235 144.104V150.045H179.665V138.906Z" fill="white"/>
<path d="M192.327 150.065C191.529 150.065 190.776 149.921 190.072 149.633C189.367 149.346 188.755 148.948 188.233 148.439C187.713 147.932 187.303 147.34 187.005 146.66C186.707 145.981 186.558 145.256 186.558 144.485C186.558 143.702 186.707 142.971 187.005 142.292C187.303 141.612 187.713 141.02 188.233 140.511C188.755 140.003 189.367 139.606 190.072 139.319C190.776 139.03 191.529 138.887 192.327 138.887C193.127 138.887 193.876 139.03 194.574 139.319C195.273 139.606 195.885 140.003 196.412 140.511C196.939 141.02 197.351 141.612 197.65 142.292C197.948 142.971 198.097 143.702 198.097 144.485C198.097 145.256 197.948 145.981 197.65 146.66C197.351 147.34 196.939 147.932 196.412 148.439C195.885 148.948 195.273 149.346 194.574 149.633C193.876 149.921 193.127 150.065 192.327 150.065ZM192.327 147.646C192.785 147.646 193.21 147.563 193.603 147.397C193.997 147.23 194.34 147.004 194.632 146.717C194.923 146.432 195.151 146.095 195.317 145.707C195.482 145.321 195.564 144.913 195.564 144.485C195.564 144.044 195.482 143.63 195.317 143.243C195.151 142.857 194.923 142.52 194.632 142.234C194.34 141.948 193.997 141.722 193.603 141.555C193.21 141.389 192.785 141.305 192.327 141.305C191.87 141.305 191.442 141.389 191.042 141.555C190.642 141.722 190.299 141.948 190.015 142.234C189.729 142.52 189.503 142.857 189.339 143.243C189.173 143.63 189.091 144.044 189.091 144.485C189.091 144.913 189.173 145.321 189.339 145.707C189.503 146.095 189.729 146.432 190.015 146.717C190.299 147.004 190.642 147.23 191.042 147.397C191.442 147.563 191.87 147.646 192.327 147.646Z" fill="white"/>
<path d="M204.743 150.065C203.931 150.065 203.172 149.917 202.469 149.624C201.763 149.33 201.151 148.933 200.63 148.431C200.11 147.929 199.7 147.34 199.402 146.66C199.103 145.981 198.954 145.256 198.954 144.485C198.954 143.702 199.103 142.971 199.402 142.292C199.7 141.612 200.11 141.02 200.63 140.511C201.151 140.003 201.763 139.606 202.469 139.319C203.172 139.03 203.931 138.887 204.743 138.887C205.365 138.887 205.952 138.972 206.504 139.139C207.057 139.308 207.562 139.542 208.018 139.842C208.475 140.14 208.875 140.495 209.218 140.907C209.561 141.319 209.84 141.774 210.056 142.273L207.751 143.183C207.498 142.611 207.108 142.156 206.581 141.816C206.054 141.475 205.447 141.305 204.763 141.305C204.293 141.305 203.858 141.389 203.458 141.555C203.058 141.722 202.708 141.948 202.411 142.234C202.112 142.52 201.88 142.857 201.716 143.243C201.55 143.63 201.468 144.044 201.468 144.485C201.468 144.913 201.55 145.321 201.716 145.707C201.88 146.095 202.112 146.432 202.411 146.717C202.708 147.004 203.061 147.23 203.468 147.397C203.873 147.563 204.311 147.646 204.781 147.646C205.505 147.646 206.123 147.465 206.638 147.101C207.152 146.739 207.536 146.272 207.791 145.7L210.093 146.629C209.877 147.126 209.599 147.588 209.256 148.01C208.913 148.434 208.517 148.798 208.066 149.103C207.615 149.408 207.11 149.644 206.553 149.813C205.994 149.98 205.39 150.065 204.743 150.065Z" fill="white"/>
<path d="M216.492 150.065C215.616 150.065 214.816 149.921 214.093 149.633C213.369 149.346 212.75 148.951 212.236 148.449C211.721 147.947 211.321 147.358 211.037 146.679C210.751 145.999 210.608 145.274 210.608 144.503C210.608 143.72 210.757 142.986 211.055 142.301C211.354 141.616 211.763 141.022 212.283 140.521C212.805 140.019 213.417 139.621 214.122 139.327C214.826 139.035 215.584 138.887 216.397 138.887C217.222 138.887 217.987 139.021 218.691 139.288C219.395 139.556 220.002 139.931 220.509 140.413C221.018 140.895 221.414 141.464 221.699 142.118C221.985 142.773 222.129 143.487 222.129 144.261V145.171H213.064C213.242 145.958 213.628 146.593 214.226 147.075C214.823 147.557 215.578 147.798 216.492 147.798C217.215 147.798 217.844 147.621 218.378 147.266C218.91 146.91 219.31 146.434 219.577 145.837L221.69 147.055C221.207 147.957 220.531 148.683 219.663 149.235C218.793 149.789 217.737 150.065 216.492 150.065ZM216.397 141.153C215.622 141.153 214.953 141.323 214.388 141.666C213.822 142.008 213.426 142.46 213.198 143.019H219.519C219.33 142.408 218.96 141.944 218.415 141.627C217.869 141.311 217.197 141.153 216.397 141.153Z" fill="white"/>
<path d="M227.459 150.065C226.228 150.065 225.205 149.835 224.394 149.378C223.581 148.919 222.953 148.257 222.508 147.39L224.889 146.319C225.155 146.807 225.517 147.182 225.973 147.444C226.431 147.706 226.964 147.836 227.574 147.836C228.208 147.836 228.685 147.709 229.001 147.455C229.319 147.202 229.478 146.899 229.478 146.548C229.478 146.354 229.404 146.197 229.259 146.075C229.113 145.954 228.922 145.848 228.687 145.758C228.452 145.667 228.176 145.592 227.859 145.53C227.542 145.471 227.211 145.404 226.87 145.331C226.386 145.235 225.913 145.12 225.451 144.987C224.987 144.853 224.571 144.669 224.203 144.433C223.835 144.196 223.537 143.894 223.308 143.524C223.08 143.157 222.965 142.694 222.965 142.136C222.965 141.712 223.07 141.304 223.28 140.911C223.489 140.518 223.785 140.171 224.165 139.867C224.546 139.564 225.006 139.326 225.545 139.15C226.085 138.975 226.684 138.887 227.345 138.887C228.462 138.887 229.391 139.093 230.134 139.507C230.877 139.921 231.464 140.483 231.896 141.195L229.706 142.231C229.478 141.857 229.16 141.562 228.754 141.346C228.347 141.128 227.879 141.02 227.345 141.02C226.736 141.02 226.286 141.135 225.993 141.365C225.702 141.595 225.555 141.861 225.555 142.164C225.555 142.515 225.771 142.766 226.202 142.918C226.634 143.069 227.268 143.229 228.106 143.399C228.563 143.484 229.023 143.596 229.488 143.735C229.95 143.874 230.373 144.062 230.753 144.298C231.134 144.534 231.442 144.838 231.677 145.206C231.911 145.575 232.029 146.039 232.029 146.595C232.029 146.972 231.941 147.362 231.762 147.766C231.585 148.173 231.308 148.548 230.935 148.893C230.559 149.238 230.087 149.52 229.515 149.737C228.944 149.956 228.259 150.065 227.459 150.065Z" fill="white"/>
<path d="M237.513 150.065C236.282 150.065 235.258 149.835 234.447 149.378C233.635 148.919 233.006 148.257 232.561 147.39L234.942 146.319C235.208 146.807 235.571 147.182 236.027 147.444C236.484 147.706 237.018 147.836 237.627 147.836C238.261 147.836 238.738 147.709 239.054 147.455C239.372 147.202 239.531 146.899 239.531 146.548C239.531 146.354 239.457 146.197 239.312 146.075C239.166 145.954 238.975 145.848 238.741 145.758C238.505 145.667 238.229 145.592 237.913 145.53C237.595 145.471 237.264 145.404 236.923 145.331C236.439 145.235 235.967 145.12 235.504 144.987C235.04 144.853 234.624 144.669 234.256 144.433C233.888 144.196 233.59 143.894 233.361 143.524C233.133 143.157 233.018 142.694 233.018 142.136C233.018 141.712 233.123 141.304 233.333 140.911C233.543 140.518 233.838 140.171 234.219 139.867C234.599 139.564 235.059 139.326 235.599 139.15C236.138 138.975 236.738 138.887 237.398 138.887C238.515 138.887 239.445 139.093 240.188 139.507C240.931 139.921 241.517 140.483 241.949 141.195L239.76 142.231C239.531 141.857 239.213 141.562 238.808 141.346C238.4 141.128 237.932 141.02 237.398 141.02C236.789 141.02 236.339 141.135 236.046 141.365C235.755 141.595 235.609 141.861 235.609 142.164C235.609 142.515 235.824 142.766 236.255 142.918C236.687 143.069 237.322 143.229 238.159 143.399C238.617 143.484 239.077 143.596 239.541 143.735C240.004 143.874 240.426 144.062 240.807 144.298C241.187 144.534 241.495 144.838 241.731 145.206C241.965 145.575 242.082 146.039 242.082 146.595C242.082 146.972 241.994 147.362 241.816 147.766C241.639 148.173 241.361 148.548 240.988 148.893C240.613 149.238 240.14 149.52 239.569 149.737C238.997 149.956 238.313 150.065 237.513 150.065Z" fill="white"/>
<path d="M248.594 150.065C247.796 150.065 247.043 149.921 246.339 149.633C245.634 149.346 245.022 148.948 244.5 148.439C243.98 147.932 243.571 147.34 243.272 146.66C242.974 145.981 242.825 145.256 242.825 144.485C242.825 143.702 242.974 142.971 243.272 142.292C243.571 141.612 243.98 141.02 244.5 140.511C245.022 140.003 245.634 139.606 246.339 139.319C247.043 139.03 247.796 138.887 248.594 138.887C249.395 138.887 250.143 139.03 250.841 139.319C251.54 139.606 252.152 140.003 252.679 140.511C253.206 141.02 253.618 141.612 253.917 142.292C254.215 142.971 254.364 143.702 254.364 144.485C254.364 145.256 254.215 145.981 253.917 146.66C253.618 147.34 253.206 147.932 252.679 148.439C252.152 148.948 251.54 149.346 250.841 149.633C250.143 149.921 249.395 150.065 248.594 150.065ZM248.594 147.646C249.052 147.646 249.477 147.563 249.87 147.397C250.264 147.23 250.607 147.004 250.899 146.717C251.19 146.432 251.419 146.095 251.585 145.707C251.749 145.321 251.831 144.913 251.831 144.485C251.831 144.044 251.749 143.63 251.585 143.243C251.419 142.857 251.19 142.52 250.899 142.234C250.607 141.948 250.264 141.722 249.87 141.555C249.477 141.389 249.052 141.305 248.594 141.305C248.137 141.305 247.709 141.389 247.309 141.555C246.909 141.722 246.566 141.948 246.282 142.234C245.996 142.52 245.77 142.857 245.606 143.243C245.44 143.63 245.358 144.044 245.358 144.485C245.358 144.913 245.44 145.321 245.606 145.707C245.77 146.095 245.996 146.432 246.282 146.717C246.566 147.004 246.909 147.23 247.309 147.397C247.709 147.563 248.137 147.646 248.594 147.646Z" fill="white"/>
<path d="M255.489 138.906H258.04V140.562C258.561 139.458 259.513 138.906 260.896 138.906C261.303 138.906 261.667 138.951 261.992 139.039C262.315 139.128 262.604 139.242 262.857 139.382L261.887 141.82C261.696 141.693 261.483 141.588 261.249 141.505C261.013 141.422 260.712 141.382 260.344 141.382C259.596 141.382 259.027 141.594 258.641 142.019C258.253 142.444 258.059 143.14 258.059 144.104V150.045H255.489V138.906Z" fill="white"/>
<path d="M167.757 120.233C167.757 114.54 172.04 110.439 177.551 110.439C181.129 110.439 184.237 112.319 185.908 115.167L182.801 117.151C181.703 115.167 180.006 113.939 177.551 113.939C173.946 113.939 171.283 116.681 171.283 120.233C171.283 123.707 173.92 126.475 177.472 126.475C180.11 126.475 181.965 124.96 182.957 122.897L186.196 124.595C184.525 127.834 181.338 130.027 177.551 130.027C171.674 130.027 167.757 125.666 167.757 120.233Z" fill="white"/>
<path d="M187.734 114.487H191.234V116.759C191.939 115.245 193.219 114.487 195.152 114.487C196.249 114.487 197.163 114.748 197.842 115.14L196.51 118.483C195.988 118.144 195.387 117.883 194.394 117.883C192.357 117.883 191.26 118.979 191.26 121.617V129.766H187.734V114.487Z" fill="white"/>
<path d="M204.658 129.009L198.389 114.487H202.15L206.408 124.778L210.43 114.487H214.139L205.721 135.11H202.143L204.658 129.009Z" fill="white"/>
<path d="M213.693 126.371L216.958 124.804C217.689 126.214 218.995 127.024 220.64 127.024C222.364 127.024 223.252 126.162 223.252 125.169C223.252 124.072 221.554 123.811 219.674 123.419C217.036 122.897 214.32 122.009 214.32 118.823C214.32 116.368 216.671 114.121 220.327 114.147C223.357 114.147 225.394 115.375 226.569 117.308L223.566 118.823C222.939 117.752 221.79 117.073 220.327 117.073C218.655 117.073 217.872 117.857 217.872 118.719C217.872 119.737 219.099 119.998 221.372 120.494C223.879 121.017 226.752 121.879 226.752 125.091C226.752 127.233 224.845 130.106 220.484 130.08C217.141 130.08 214.92 128.774 213.693 126.371Z" fill="white"/>
<path d="M227.456 114.487H230.068V112.163L233.619 109.734V114.487H236.728V117.648H233.619V123.367C233.619 126.032 233.985 126.449 236.728 126.449V129.766H236.231C231.504 129.766 230.068 128.251 230.068 123.393V117.648H227.456V114.487Z" fill="white"/>
<path d="M237.928 122.14C237.928 117.073 241.636 114.174 245.502 114.174C247.513 114.174 249.315 115.009 250.412 116.316V114.487H253.938V129.766H250.412V127.782C249.289 129.192 247.46 130.08 245.45 130.08C241.767 130.08 237.928 127.129 237.928 122.14ZM250.595 122.088C250.595 119.502 248.636 117.386 246.024 117.386C243.412 117.386 241.401 119.45 241.401 122.088C241.401 124.752 243.412 126.841 246.024 126.841C248.636 126.841 250.595 124.726 250.595 122.088Z" fill="white"/>
<path d="M256.691 110.439H260.243V129.766H256.691V110.439Z" fill="white"/>
<path d="M224.823 161.432L217.887 168.196V167.714V161.432H215.13V180.259H217.887V173.359V172.361L224.823 180.259H228.708L219.803 170.117L228.708 161.432H224.823Z" fill="white"/>
<path d="M210.473 172.676V161.429H207.825L200.119 173.272V175.453H207.711V180.251H210.473V175.453H213.353V172.676H210.473ZM203.544 172.676L207.711 166.274V172.676H203.544Z" fill="white"/>
<path d="M103.817 251.369C103.817 250.077 104.108 248.918 104.691 247.892C105.274 246.853 106.065 246.043 107.066 245.46C108.079 244.877 109.2 244.586 110.429 244.586C111.873 244.586 113.133 244.934 114.21 245.631C115.287 246.328 116.072 247.316 116.566 248.595H114.495C114.128 247.797 113.596 247.183 112.899 246.752C112.215 246.321 111.392 246.106 110.429 246.106C109.504 246.106 108.675 246.321 107.94 246.752C107.205 247.183 106.629 247.797 106.211 248.595C105.793 249.38 105.584 250.305 105.584 251.369C105.584 252.42 105.793 253.345 106.211 254.143C106.629 254.928 107.205 255.536 107.94 255.967C108.675 256.398 109.504 256.613 110.429 256.613C111.392 256.613 112.215 256.404 112.899 255.986C113.596 255.555 114.128 254.941 114.495 254.143H116.566C116.072 255.41 115.287 256.391 114.21 257.088C113.133 257.772 111.873 258.114 110.429 258.114C109.2 258.114 108.079 257.829 107.066 257.259C106.065 256.676 105.274 255.872 104.691 254.846C104.108 253.82 103.817 252.661 103.817 251.369ZM126.113 258L122.959 252.585H120.869V258H119.14V244.757H123.415C124.415 244.757 125.258 244.928 125.942 245.27C126.638 245.612 127.158 246.074 127.5 246.657C127.842 247.24 128.013 247.905 128.013 248.652C128.013 249.564 127.747 250.368 127.215 251.065C126.695 251.762 125.91 252.224 124.859 252.452L128.184 258H126.113ZM120.869 251.198H123.415C124.352 251.198 125.055 250.97 125.524 250.514C125.992 250.045 126.227 249.425 126.227 248.652C126.227 247.867 125.992 247.259 125.524 246.828C125.068 246.397 124.365 246.182 123.415 246.182H120.869V251.198ZM139.971 244.757L135.658 253.003V258H133.929V253.003L129.597 244.757H131.516L134.784 251.464L138.052 244.757H139.971ZM145.994 258.133C145.12 258.133 144.335 257.981 143.638 257.677C142.954 257.36 142.416 256.93 142.023 256.385C141.63 255.828 141.428 255.188 141.415 254.466H143.258C143.321 255.087 143.575 255.612 144.018 256.043C144.474 256.461 145.133 256.67 145.994 256.67C146.817 256.67 147.463 256.467 147.932 256.062C148.413 255.644 148.654 255.112 148.654 254.466C148.654 253.959 148.515 253.548 148.236 253.231C147.957 252.914 147.609 252.674 147.191 252.509C146.773 252.344 146.209 252.167 145.5 251.977C144.626 251.749 143.923 251.521 143.391 251.293C142.872 251.065 142.422 250.71 142.042 250.229C141.675 249.735 141.491 249.076 141.491 248.253C141.491 247.531 141.675 246.891 142.042 246.334C142.409 245.777 142.922 245.346 143.581 245.042C144.252 244.738 145.019 244.586 145.88 244.586C147.121 244.586 148.135 244.896 148.92 245.517C149.718 246.138 150.168 246.961 150.269 247.987H148.369C148.306 247.48 148.04 247.037 147.571 246.657C147.102 246.264 146.482 246.068 145.709 246.068C144.987 246.068 144.398 246.258 143.942 246.638C143.486 247.005 143.258 247.525 143.258 248.196C143.258 248.677 143.391 249.07 143.657 249.374C143.936 249.678 144.271 249.912 144.664 250.077C145.069 250.229 145.633 250.406 146.355 250.609C147.229 250.85 147.932 251.09 148.464 251.331C148.996 251.559 149.452 251.92 149.832 252.414C150.212 252.895 150.402 253.554 150.402 254.39C150.402 255.036 150.231 255.644 149.889 256.214C149.547 256.784 149.04 257.246 148.369 257.601C147.698 257.956 146.906 258.133 145.994 258.133ZM161.097 244.757V246.163H157.487V258H155.758V246.163H152.129V244.757H161.097ZM171.054 255.055H165.278L164.214 258H162.39L167.178 244.833H169.173L173.942 258H172.118L171.054 255.055ZM170.56 253.649L168.166 246.961L165.772 253.649H170.56ZM177.757 256.594H182.393V258H176.028V244.757H177.757V256.594ZM198.149 248.633C198.149 249.735 197.769 250.653 197.009 251.388C196.262 252.11 195.115 252.471 193.57 252.471H191.024V258H189.295V244.757H193.57C195.065 244.757 196.198 245.118 196.971 245.84C197.756 246.562 198.149 247.493 198.149 248.633ZM193.57 251.046C194.533 251.046 195.242 250.837 195.698 250.419C196.154 250.001 196.382 249.406 196.382 248.633C196.382 246.999 195.445 246.182 193.57 246.182H191.024V251.046H193.57ZM207.271 258L204.117 252.585H202.027V258H200.298V244.757H204.573C205.574 244.757 206.416 244.928 207.1 245.27C207.797 245.612 208.316 246.074 208.658 246.657C209 247.24 209.171 247.905 209.171 248.652C209.171 249.564 208.905 250.368 208.373 251.065C207.854 251.762 207.068 252.224 206.017 252.452L209.342 258H207.271ZM202.027 251.198H204.573C205.51 251.198 206.213 250.97 206.682 250.514C207.151 250.045 207.385 249.425 207.385 248.652C207.385 247.867 207.151 247.259 206.682 246.828C206.226 246.397 205.523 246.182 204.573 246.182H202.027V251.198ZM217.862 258.133C216.633 258.133 215.512 257.848 214.499 257.278C213.485 256.695 212.681 255.891 212.086 254.865C211.503 253.826 211.212 252.661 211.212 251.369C211.212 250.077 211.503 248.918 212.086 247.892C212.681 246.853 213.485 246.049 214.499 245.479C215.512 244.896 216.633 244.605 217.862 244.605C219.103 244.605 220.23 244.896 221.244 245.479C222.257 246.049 223.055 246.847 223.638 247.873C224.22 248.899 224.512 250.064 224.512 251.369C224.512 252.674 224.22 253.839 223.638 254.865C223.055 255.891 222.257 256.695 221.244 257.278C220.23 257.848 219.103 258.133 217.862 258.133ZM217.862 256.632C218.786 256.632 219.616 256.417 220.351 255.986C221.098 255.555 221.681 254.941 222.099 254.143C222.529 253.345 222.745 252.42 222.745 251.369C222.745 250.305 222.529 249.38 222.099 248.595C221.681 247.797 221.104 247.183 220.37 246.752C219.635 246.321 218.799 246.106 217.862 246.106C216.924 246.106 216.088 246.321 215.354 246.752C214.619 247.183 214.036 247.797 213.606 248.595C213.188 249.38 212.979 250.305 212.979 251.369C212.979 252.42 213.188 253.345 213.606 254.143C214.036 254.941 214.619 255.555 215.354 255.986C216.101 256.417 216.937 256.632 217.862 256.632ZM226.148 251.369C226.148 250.077 226.439 248.918 227.022 247.892C227.605 246.853 228.396 246.043 229.397 245.46C230.41 244.877 231.531 244.586 232.76 244.586C234.204 244.586 235.464 244.934 236.541 245.631C237.618 246.328 238.403 247.316 238.897 248.595H236.826C236.459 247.797 235.927 247.183 235.23 246.752C234.546 246.321 233.723 246.106 232.76 246.106C231.835 246.106 231.006 246.321 230.271 246.752C229.536 247.183 228.96 247.797 228.542 248.595C228.124 249.38 227.915 250.305 227.915 251.369C227.915 252.42 228.124 253.345 228.542 254.143C228.96 254.928 229.536 255.536 230.271 255.967C231.006 256.398 231.835 256.613 232.76 256.613C233.723 256.613 234.546 256.404 235.23 255.986C235.927 255.555 236.459 254.941 236.826 254.143H238.897C238.403 255.41 237.618 256.391 236.541 257.088C235.464 257.772 234.204 258.114 232.76 258.114C231.531 258.114 230.41 257.829 229.397 257.259C228.396 256.676 227.605 255.872 227.022 254.846C226.439 253.82 226.148 252.661 226.148 251.369ZM243.2 246.163V250.59H248.026V252.015H243.2V256.575H248.596V258H241.471V244.738H248.596V246.163H243.2ZM255.411 258.133C254.537 258.133 253.752 257.981 253.055 257.677C252.371 257.36 251.833 256.93 251.44 256.385C251.047 255.828 250.845 255.188 250.832 254.466H252.675C252.738 255.087 252.992 255.612 253.435 256.043C253.891 256.461 254.55 256.67 255.411 256.67C256.234 256.67 256.88 256.467 257.349 256.062C257.83 255.644 258.071 255.112 258.071 254.466C258.071 253.959 257.932 253.548 257.653 253.231C257.374 252.914 257.026 252.674 256.608 252.509C256.19 252.344 255.626 252.167 254.917 251.977C254.043 251.749 253.34 251.521 252.808 251.293C252.289 251.065 251.839 250.71 251.459 250.229C251.092 249.735 250.908 249.076 250.908 248.253C250.908 247.531 251.092 246.891 251.459 246.334C251.826 245.777 252.339 245.346 252.998 245.042C253.669 244.738 254.436 244.586 255.297 244.586C256.538 244.586 257.552 244.896 258.337 245.517C259.135 246.138 259.585 246.961 259.686 247.987H257.786C257.723 247.48 257.457 247.037 256.988 246.657C256.519 246.264 255.899 246.068 255.126 246.068C254.404 246.068 253.815 246.258 253.359 246.638C252.903 247.005 252.675 247.525 252.675 248.196C252.675 248.677 252.808 249.07 253.074 249.374C253.353 249.678 253.688 249.912 254.081 250.077C254.486 250.229 255.05 250.406 255.772 250.609C256.646 250.85 257.349 251.09 257.881 251.331C258.413 251.559 258.869 251.92 259.249 252.414C259.629 252.895 259.819 253.554 259.819 254.39C259.819 255.036 259.648 255.644 259.306 256.214C258.964 256.784 258.457 257.246 257.786 257.601C257.115 257.956 256.323 258.133 255.411 258.133ZM266.562 258.133C265.688 258.133 264.903 257.981 264.206 257.677C263.522 257.36 262.984 256.93 262.591 256.385C262.199 255.828 261.996 255.188 261.983 254.466H263.826C263.89 255.087 264.143 255.612 264.586 256.043C265.042 256.461 265.701 256.67 266.562 256.67C267.386 256.67 268.032 256.467 268.5 256.062C268.982 255.644 269.222 255.112 269.222 254.466C269.222 253.959 269.083 253.548 268.804 253.231C268.526 252.914 268.177 252.674 267.759 252.509C267.341 252.344 266.778 252.167 266.068 251.977C265.194 251.749 264.491 251.521 263.959 251.293C263.44 251.065 262.99 250.71 262.61 250.229C262.243 249.735 262.059 249.076 262.059 248.253C262.059 247.531 262.243 246.891 262.61 246.334C262.978 245.777 263.491 245.346 264.149 245.042C264.821 244.738 265.587 244.586 266.448 244.586C267.69 244.586 268.703 244.896 269.488 245.517C270.286 246.138 270.736 246.961 270.837 247.987H268.937C268.874 247.48 268.608 247.037 268.139 246.657C267.671 246.264 267.05 246.068 266.277 246.068C265.555 246.068 264.966 246.258 264.51 246.638C264.054 247.005 263.826 247.525 263.826 248.196C263.826 248.677 263.959 249.07 264.225 249.374C264.504 249.678 264.84 249.912 265.232 250.077C265.638 250.229 266.201 250.406 266.923 250.609C267.797 250.85 268.5 251.09 269.032 251.331C269.564 251.559 270.02 251.92 270.4 252.414C270.78 252.895 270.97 253.554 270.97 254.39C270.97 255.036 270.799 255.644 270.457 256.214C270.115 256.784 269.609 257.246 268.937 257.601C268.266 257.956 267.474 258.133 266.562 258.133ZM279.519 258.133C278.29 258.133 277.169 257.848 276.156 257.278C275.142 256.695 274.338 255.891 273.743 254.865C273.16 253.826 272.869 252.661 272.869 251.369C272.869 250.077 273.16 248.918 273.743 247.892C274.338 246.853 275.142 246.049 276.156 245.479C277.169 244.896 278.29 244.605 279.519 244.605C280.76 244.605 281.887 244.896 282.901 245.479C283.914 246.049 284.712 246.847 285.295 247.873C285.877 248.899 286.169 250.064 286.169 251.369C286.169 252.674 285.877 253.839 285.295 254.865C284.712 255.891 283.914 256.695 282.901 257.278C281.887 257.848 280.76 258.133 279.519 258.133ZM279.519 256.632C280.443 256.632 281.273 256.417 282.008 255.986C282.755 255.555 283.338 254.941 283.756 254.143C284.186 253.345 284.402 252.42 284.402 251.369C284.402 250.305 284.186 249.38 283.756 248.595C283.338 247.797 282.761 247.183 282.027 246.752C281.292 246.321 280.456 246.106 279.519 246.106C278.581 246.106 277.745 246.321 277.011 246.752C276.276 247.183 275.693 247.797 275.263 248.595C274.845 249.38 274.636 250.305 274.636 251.369C274.636 252.42 274.845 253.345 275.263 254.143C275.693 254.941 276.276 255.555 277.011 255.986C277.758 256.417 278.594 256.632 279.519 256.632ZM295.424 258L292.27 252.585H290.18V258H288.451V244.757H292.726C293.727 244.757 294.569 244.928 295.253 245.27C295.95 245.612 296.469 246.074 296.811 246.657C297.153 247.24 297.324 247.905 297.324 248.652C297.324 249.564 297.058 250.368 296.526 251.065C296.007 251.762 295.222 252.224 294.17 252.452L297.495 258H295.424ZM290.18 251.198H292.726C293.664 251.198 294.367 250.97 294.835 250.514C295.304 250.045 295.538 249.425 295.538 248.652C295.538 247.867 295.304 247.259 294.835 246.828C294.379 246.397 293.676 246.182 292.726 246.182H290.18V251.198ZM304.373 254.941V253.63L311.042 244.396H313.113V253.44H315.013V254.941H313.113V258H311.403V254.941H304.373ZM311.479 246.201L306.368 253.44H311.479V246.201ZM324.208 258L318.755 251.958V258H317.026V244.757H318.755V250.894L324.227 244.757H326.412L320.408 251.388L326.469 258H324.208Z" fill="url(#paint0_linear_434_156)"/>
<defs>
<linearGradient id="paint0_linear_434_156" x1="75.8155" y1="237" x2="359.026" y2="277.707" gradientUnits="userSpaceOnUse">
<stop stop-color="#6EFF24"/>
<stop offset="0.3125" stop-color="#57A8D6"/>
<stop offset="0.6875" stop-color="#B360E0"/>
<stop offset="1" stop-color="#FF2424"/>
</linearGradient>
</defs>
</svg>
