<svg width="430" height="306" viewBox="0 0 430 306" fill="none" xmlns="http://www.w3.org/2000/svg">
<rect width="430" height="306" rx="5" fill="#1B1B1B" fill-opacity="0.5"/>
<g clip-path="url(#clip0_434_263)">
<path d="M200.714 107.188C201.653 106.907 238.748 99.3982 240.191 99.1971C241.226 99.0527 241.515 99.0651 242.14 99.28C243.006 99.5775 243.549 100.27 243.776 101.363C243.907 101.993 243.952 111.984 243.918 132.534L243.867 162.778L243.464 164.193C242.684 166.935 241.63 168.568 239.58 170.213C237.348 172.004 234.284 172.863 230.078 172.876C227.702 172.883 227.407 172.845 226.256 172.388C224.486 171.684 223.015 170.484 221.927 168.858C220.658 166.961 220.333 165.926 220.333 163.789C220.333 161.673 220.812 160.094 221.973 158.391C223.811 155.692 226.852 154.327 234.307 152.854C235.622 152.594 236.924 152.29 237.201 152.18C237.923 151.891 238.956 150.676 239.085 149.964C239.145 149.629 239.171 142.765 239.141 134.71C239.09 120.656 239.074 120.05 238.741 119.682C238.208 119.093 237.379 119.037 235.291 119.45C233.486 119.807 214.385 123.68 207.606 125.064C205.865 125.42 204.191 125.84 203.886 125.997C203.725 126.081 203.587 126.129 203.469 126.207C202.724 126.7 202.772 128.393 202.772 147.763C202.772 168.863 202.714 170.821 202.015 173.125C200.978 176.543 198.228 179.303 194.774 180.393C191.622 181.387 187.961 181.607 185.764 180.933C182.974 180.078 180.783 178.118 179.781 175.582C179.16 174.012 179.059 170.874 179.574 169.183C180.219 167.065 181.33 165.545 183.098 164.36C184.978 163.1 187.126 162.38 192.001 161.374C196.035 160.541 196.729 160.248 197.464 159.066L197.9 158.365L197.992 134.093C198.08 110.869 198.014 109.087 198.863 108.329C199.002 108.205 199.166 108.108 199.358 107.949C199.73 107.642 200.341 107.3 200.714 107.188Z" fill="white"/>
<path fill-rule="evenodd" clip-rule="evenodd" d="M280 142C280 177.899 250.899 207 215 207C179.101 207 150 177.899 150 142C150 106.101 179.101 77 215 77C250.899 77 280 106.101 280 142ZM274.116 142C274.116 174.649 247.649 201.116 215 201.116C182.351 201.116 155.884 174.649 155.884 142C155.884 109.351 182.351 82.884 215 82.884C247.649 82.884 274.116 109.351 274.116 142Z" fill="white"/>
</g>
<path d="M165.291 255.055H159.515L158.451 258H156.627L161.415 244.833H163.41L168.179 258H166.355L165.291 255.055ZM164.797 253.649L162.403 246.961L160.009 253.649H164.797ZM179.12 248.633C179.12 249.735 178.74 250.653 177.98 251.388C177.232 252.11 176.086 252.471 174.541 252.471H171.995V258H170.266V244.757H174.541C176.035 244.757 177.169 245.118 177.942 245.84C178.727 246.562 179.12 247.493 179.12 248.633ZM174.541 251.046C175.503 251.046 176.213 250.837 176.669 250.419C177.125 250.001 177.353 249.406 177.353 248.633C177.353 246.999 176.415 246.182 174.541 246.182H171.995V251.046H174.541ZM190.123 248.633C190.123 249.735 189.743 250.653 188.983 251.388C188.235 252.11 187.089 252.471 185.544 252.471H182.998V258H181.269V244.757H185.544C187.038 244.757 188.172 245.118 188.945 245.84C189.73 246.562 190.123 247.493 190.123 248.633ZM185.544 251.046C186.506 251.046 187.216 250.837 187.672 250.419C188.128 250.001 188.356 249.406 188.356 248.633C188.356 246.999 187.418 246.182 185.544 246.182H182.998V251.046H185.544ZM194.001 256.594H198.637V258H192.272V244.757H194.001V256.594ZM202.202 246.163V250.59H207.028V252.015H202.202V256.575H207.598V258H200.473V244.738H207.598V246.163H202.202ZM228.712 244.852V258H226.983V248.196L222.613 258H221.397L217.008 248.177V258H215.279V244.852H217.141L222.005 255.72L226.869 244.852H228.712ZM233.336 244.757V253.136C233.336 254.314 233.621 255.188 234.191 255.758C234.773 256.328 235.578 256.613 236.604 256.613C237.617 256.613 238.409 256.328 238.979 255.758C239.561 255.188 239.853 254.314 239.853 253.136V244.757H241.582V253.117C241.582 254.219 241.36 255.15 240.917 255.91C240.473 256.657 239.872 257.215 239.112 257.582C238.364 257.949 237.522 258.133 236.585 258.133C235.647 258.133 234.799 257.949 234.039 257.582C233.291 257.215 232.696 256.657 232.253 255.91C231.822 255.15 231.607 254.219 231.607 253.117V244.757H233.336ZM248.665 258.133C247.791 258.133 247.006 257.981 246.309 257.677C245.625 257.36 245.087 256.93 244.694 256.385C244.301 255.828 244.099 255.188 244.086 254.466H245.929C245.992 255.087 246.246 255.612 246.689 256.043C247.145 256.461 247.804 256.67 248.665 256.67C249.488 256.67 250.134 256.467 250.603 256.062C251.084 255.644 251.325 255.112 251.325 254.466C251.325 253.959 251.186 253.548 250.907 253.231C250.628 252.914 250.28 252.674 249.862 252.509C249.444 252.344 248.88 252.167 248.171 251.977C247.297 251.749 246.594 251.521 246.062 251.293C245.543 251.065 245.093 250.71 244.713 250.229C244.346 249.735 244.162 249.076 244.162 248.253C244.162 247.531 244.346 246.891 244.713 246.334C245.08 245.777 245.593 245.346 246.252 245.042C246.923 244.738 247.69 244.586 248.551 244.586C249.792 244.586 250.806 244.896 251.591 245.517C252.389 246.138 252.839 246.961 252.94 247.987H251.04C250.977 247.48 250.711 247.037 250.242 246.657C249.773 246.264 249.153 246.068 248.38 246.068C247.658 246.068 247.069 246.258 246.613 246.638C246.157 247.005 245.929 247.525 245.929 248.196C245.929 248.677 246.062 249.07 246.328 249.374C246.607 249.678 246.942 249.912 247.335 250.077C247.74 250.229 248.304 250.406 249.026 250.609C249.9 250.85 250.603 251.09 251.135 251.331C251.667 251.559 252.123 251.92 252.503 252.414C252.883 252.895 253.073 253.554 253.073 254.39C253.073 255.036 252.902 255.644 252.56 256.214C252.218 256.784 251.711 257.246 251.04 257.601C250.369 257.956 249.577 258.133 248.665 258.133ZM257.346 244.757V258H255.617V244.757H257.346ZM259.647 251.369C259.647 250.077 259.938 248.918 260.521 247.892C261.104 246.853 261.895 246.043 262.896 245.46C263.909 244.877 265.03 244.586 266.259 244.586C267.703 244.586 268.963 244.934 270.04 245.631C271.117 246.328 271.902 247.316 272.396 248.595H270.325C269.958 247.797 269.426 247.183 268.729 246.752C268.045 246.321 267.222 246.106 266.259 246.106C265.334 246.106 264.505 246.321 263.77 246.752C263.035 247.183 262.459 247.797 262.041 248.595C261.623 249.38 261.414 250.305 261.414 251.369C261.414 252.42 261.623 253.345 262.041 254.143C262.459 254.928 263.035 255.536 263.77 255.967C264.505 256.398 265.334 256.613 266.259 256.613C267.222 256.613 268.045 256.404 268.729 255.986C269.426 255.555 269.958 254.941 270.325 254.143H272.396C271.902 255.41 271.117 256.391 270.04 257.088C268.963 257.772 267.703 258.114 266.259 258.114C265.03 258.114 263.909 257.829 262.896 257.259C261.895 256.676 261.104 255.872 260.521 254.846C259.938 253.82 259.647 252.661 259.647 251.369Z" fill="url(#paint0_linear_434_263)"/>
<defs>
<linearGradient id="paint0_linear_434_263" x1="141.68" y1="237" x2="293.085" y2="248.464" gradientUnits="userSpaceOnUse">
<stop offset="0.0729167" stop-color="#FF2424"/>
<stop offset="0.390625" stop-color="#6EFF24"/>
<stop offset="0.651042" stop-color="#B360E0"/>
<stop offset="1" stop-color="#57A8D6"/>
</linearGradient>
<clipPath id="clip0_434_263">
<rect width="130" height="130" fill="white" transform="translate(150 77)"/>
</clipPath>
</defs>
</svg>
