<svg width="430" height="306" viewBox="0 0 430 306" fill="none" xmlns="http://www.w3.org/2000/svg">
<rect width="430" height="306" rx="5" fill="#1B1B1B" fill-opacity="0.5"/>
<path fill-rule="evenodd" clip-rule="evenodd" d="M210.374 81.5863C205.178 83.228 201.013 86.7341 198.806 91.3231C197.057 94.9606 196.649 101.17 197.899 105.131C202 118.122 218.702 122.099 227.919 112.279C237.36 102.221 233.213 85.8254 220.209 81.7919C217.068 80.8177 213.07 80.7343 210.374 81.5863ZM203.897 124.26C199.921 125.31 197.964 126.154 174.643 136.873C164.406 141.578 155.109 146.06 153.982 146.833C151.629 148.446 150 150.802 150 152.592C150 155.533 152.303 157.912 157.822 160.673C163.309 163.417 198.102 179.386 200.427 180.226C208.662 183.205 219.216 183.479 227.577 180.933C230.753 179.966 269.855 162.204 274.285 159.716C277.771 157.758 280 155.128 279.998 152.974C279.996 150.786 278.696 148.65 276.326 146.939C274.151 145.369 232.496 126.155 228.398 124.831C226.862 124.335 224.728 123.782 223.656 123.601L221.708 123.273V138.781C221.708 155.805 221.635 156.308 218.948 157.693C217.429 158.476 213.579 158.62 211.836 157.959C211.208 157.722 210.258 157.06 209.724 156.49C208.778 155.478 208.754 155.06 208.754 139.403C208.754 121.056 209.323 122.827 203.897 124.26ZM180.281 148.3C182.626 148.949 185.16 151.431 185.16 153.08C185.16 154.908 182.971 156.813 179.825 157.725C173.634 159.518 166.192 156.753 166.192 152.659C166.192 151.483 168.621 149.174 170.587 148.481C172.817 147.696 177.763 147.603 180.281 148.3ZM150.668 167.013C150.056 167.623 149.945 168.561 150.074 172.046L150.231 176.329L152.055 178.19C153.058 179.213 155.452 180.859 157.375 181.848C164.754 185.644 199.889 201.701 202.972 202.686C205.608 203.529 207.599 203.759 213.674 203.924C225.231 204.238 225.342 204.202 253.682 190.892C274.758 180.995 277.3 179.625 278.896 177.303C279.864 175.896 280 175.171 280 171.441C280 167.787 279.88 167.12 279.152 166.732C278.479 166.373 273.509 168.511 254.98 177.129C242.151 183.096 230.198 188.466 228.416 189.063C220.331 191.77 210.578 191.834 202.278 189.234C200.624 188.716 189 183.524 176.446 177.696C163.893 171.868 153.127 166.912 152.521 166.682C151.702 166.372 151.226 166.457 150.668 167.013Z" fill="white"/>
<path d="M158.291 255.055H152.515L151.451 258H149.627L154.415 244.833H156.41L161.179 258H159.355L158.291 255.055ZM157.797 253.649L155.403 246.961L153.009 253.649H157.797ZM172.12 248.633C172.12 249.735 171.74 250.653 170.98 251.388C170.232 252.11 169.086 252.471 167.541 252.471H164.995V258H163.266V244.757H167.541C169.035 244.757 170.169 245.118 170.942 245.84C171.727 246.562 172.12 247.493 172.12 248.633ZM167.541 251.046C168.503 251.046 169.213 250.837 169.669 250.419C170.125 250.001 170.353 249.406 170.353 248.633C170.353 246.999 169.415 246.182 167.541 246.182H164.995V251.046H167.541ZM183.123 248.633C183.123 249.735 182.743 250.653 181.983 251.388C181.235 252.11 180.089 252.471 178.544 252.471H175.998V258H174.269V244.757H178.544C180.038 244.757 181.172 245.118 181.945 245.84C182.73 246.562 183.123 247.493 183.123 248.633ZM178.544 251.046C179.506 251.046 180.216 250.837 180.672 250.419C181.128 250.001 181.356 249.406 181.356 248.633C181.356 246.999 180.418 246.182 178.544 246.182H175.998V251.046H178.544ZM187.001 256.594H191.637V258H185.272V244.757H187.001V256.594ZM195.202 246.163V250.59H200.028V252.015H195.202V256.575H200.598V258H193.473V244.738H200.598V246.163H195.202ZM216.107 255.055H210.331L209.267 258H207.443L212.231 244.833H214.226L218.995 258H217.171L216.107 255.055ZM215.613 253.649L213.219 246.961L210.825 253.649H215.613ZM228.055 258L224.901 252.585H222.811V258H221.082V244.757H225.357C226.358 244.757 227.2 244.928 227.884 245.27C228.581 245.612 229.1 246.074 229.442 246.657C229.784 247.24 229.955 247.905 229.955 248.652C229.955 249.564 229.689 250.368 229.157 251.065C228.638 251.762 227.852 252.224 226.801 252.452L230.126 258H228.055ZM222.811 251.198H225.357C226.294 251.198 226.997 250.97 227.466 250.514C227.935 250.045 228.169 249.425 228.169 248.652C228.169 247.867 227.935 247.259 227.466 246.828C227.01 246.397 226.307 246.182 225.357 246.182H222.811V251.198ZM231.996 251.369C231.996 250.077 232.287 248.918 232.87 247.892C233.452 246.853 234.244 246.043 235.245 245.46C236.258 244.877 237.379 244.586 238.608 244.586C240.052 244.586 241.312 244.934 242.389 245.631C243.465 246.328 244.251 247.316 244.745 248.595H242.674C242.306 247.797 241.774 247.183 241.078 246.752C240.394 246.321 239.57 246.106 238.608 246.106C237.683 246.106 236.853 246.321 236.119 246.752C235.384 247.183 234.808 247.797 234.39 248.595C233.972 249.38 233.763 250.305 233.763 251.369C233.763 252.42 233.972 253.345 234.39 254.143C234.808 254.928 235.384 255.536 236.119 255.967C236.853 256.398 237.683 256.613 238.608 256.613C239.57 256.613 240.394 256.404 241.078 255.986C241.774 255.555 242.306 254.941 242.674 254.143H244.745C244.251 255.41 243.465 256.391 242.389 257.088C241.312 257.772 240.052 258.114 238.608 258.114C237.379 258.114 236.258 257.829 235.245 257.259C234.244 256.676 233.452 255.872 232.87 254.846C232.287 253.82 231.996 252.661 231.996 251.369ZM255.146 255.055H249.37L248.306 258H246.482L251.27 244.833H253.265L258.034 258H256.21L255.146 255.055ZM254.652 253.649L252.258 246.961L249.864 253.649H254.652ZM264.244 244.757C265.688 244.757 266.936 245.029 267.987 245.574C269.051 246.106 269.862 246.872 270.419 247.873C270.989 248.874 271.274 250.052 271.274 251.407C271.274 252.762 270.989 253.94 270.419 254.941C269.862 255.929 269.051 256.689 267.987 257.221C266.936 257.74 265.688 258 264.244 258H260.121V244.757H264.244ZM264.244 256.575C265.954 256.575 267.259 256.125 268.158 255.226C269.058 254.314 269.507 253.041 269.507 251.407C269.507 249.76 269.051 248.475 268.139 247.55C267.24 246.625 265.942 246.163 264.244 246.163H261.85V256.575H264.244ZM275.284 246.163V250.59H280.11V252.015H275.284V256.575H280.68V258H273.555V244.738H280.68V246.163H275.284Z" fill="url(#paint0_linear_434_253)"/>
<defs>
<linearGradient id="paint0_linear_434_253" x1="132.859" y1="237" x2="303.248" y2="251.541" gradientUnits="userSpaceOnUse">
<stop stop-color="#B360E0"/>
<stop offset="0.369792" stop-color="#57A8D6"/>
<stop offset="0.682292" stop-color="#6EFF24"/>
<stop offset="1" stop-color="#FF2424"/>
</linearGradient>
</defs>
</svg>
