<svg width="430" height="306" viewBox="0 0 430 306" fill="none" xmlns="http://www.w3.org/2000/svg">
<rect width="430" height="306" rx="5" fill="#1B1B1B" fill-opacity="0.5"/>
<g clip-path="url(#clip0_434_248)">
<path d="M186.163 128.18C186.848 124.617 189.444 121.626 192.879 120.444C193.494 120.232 194.261 120.054 194.583 120.047C195.153 120.036 195.167 120.085 195.073 121.69C194.83 125.839 191.293 129.797 187.424 130.249C185.98 130.417 185.792 130.11 186.163 128.18Z" fill="white"/>
<path d="M219.325 124.861L220.815 124.299C221.635 123.989 222.389 123.731 222.492 123.724C222.594 123.717 222.678 125.31 222.678 127.264V130.817H231.866V133.512H222.652L222.74 145.579C222.804 154.379 222.912 157.897 223.139 158.572C223.957 161.008 226 161.98 229.255 161.48C230.2 161.335 231.023 161.266 231.086 161.327C231.148 161.389 231.274 161.927 231.366 162.524C231.52 163.524 231.482 163.632 230.892 163.905C230.54 164.067 229.239 164.256 228.002 164.323C223.32 164.579 221.022 163.061 219.746 158.871C219.443 157.876 219.353 155.38 219.267 145.579L219.161 133.512H213.712L213.862 130.939L219.186 130.8L219.325 124.861Z" fill="white"/>
<path d="M189.46 131.782C190.516 131.384 191.969 130.962 192.689 130.844C194.505 130.545 194.546 130.545 196.356 130.825C198.572 131.168 200.758 132.27 202.165 133.754L203.328 134.981L201.74 136.446C200.625 137.476 199.939 138.368 199.434 139.448C198.785 140.835 198.715 141.236 198.715 143.558C198.715 145.825 198.792 146.293 199.369 147.507C200.183 149.219 201.55 150.739 203.238 151.808C203.826 152.18 204.176 152.358 204.294 152.635C204.468 153.046 204.13 153.676 203.294 155.481C200.759 160.954 197.406 164.362 194.542 164.379C194.022 164.382 192.428 163.998 191 163.527C187.619 162.41 186.435 162.41 183.019 163.527C181.575 163.998 180.015 164.384 179.551 164.384C175.775 164.384 170.591 157.555 168.657 150.035C167.913 147.139 167.801 142.163 168.425 139.75C169.748 134.636 173.6 131.131 178.184 130.869C179.924 130.77 180.37 130.852 183.183 131.783C184.962 132.372 185.782 132.652 186.59 132.622C187.322 132.595 188.044 132.315 189.46 131.782Z" fill="white"/>
<path d="M244.639 158.994C239.079 144.731 234.008 131.618 233.909 131.245C233.808 130.867 233.998 130.817 235.519 130.817H237.244L241.409 141.904C243.7 148.002 246.139 154.567 246.829 156.494L248.085 159.997L249.158 157.107C249.748 155.517 252.219 148.979 254.65 142.577L259.069 130.939L260.739 130.867C261.951 130.814 262.409 130.879 262.409 131.101C262.409 131.27 259.483 138.667 255.906 147.539L249.402 163.67L246.406 163.527L244.639 158.994Z" fill="white"/>
<path fill-rule="evenodd" clip-rule="evenodd" d="M150 103.755C150 88.9786 161.939 77 176.667 77H253.333C268.061 77 280 88.9786 280 103.755V180.245C280 195.021 268.061 207 253.333 207H176.667C161.939 207 150 195.021 150 180.245V103.755ZM176.667 83.6887H253.333C264.379 83.6887 273.333 92.6727 273.333 103.755V180.245C273.333 191.327 264.379 200.311 253.333 200.311H176.667C165.621 200.311 156.667 191.327 156.667 180.245V103.755C156.667 92.6727 165.621 83.6887 176.667 83.6887Z" fill="white"/>
</g>
<path d="M169.291 255.055H163.515L162.451 258H160.627L165.415 244.833H167.41L172.179 258H170.355L169.291 255.055ZM168.797 253.649L166.403 246.961L164.009 253.649H168.797ZM183.12 248.633C183.12 249.735 182.74 250.653 181.98 251.388C181.232 252.11 180.086 252.471 178.541 252.471H175.995V258H174.266V244.757H178.541C180.035 244.757 181.169 245.118 181.942 245.84C182.727 246.562 183.12 247.493 183.12 248.633ZM178.541 251.046C179.503 251.046 180.213 250.837 180.669 250.419C181.125 250.001 181.353 249.406 181.353 248.633C181.353 246.999 180.415 246.182 178.541 246.182H175.995V251.046H178.541ZM194.123 248.633C194.123 249.735 193.743 250.653 192.983 251.388C192.235 252.11 191.089 252.471 189.544 252.471H186.998V258H185.269V244.757H189.544C191.038 244.757 192.172 245.118 192.945 245.84C193.73 246.562 194.123 247.493 194.123 248.633ZM189.544 251.046C190.506 251.046 191.216 250.837 191.672 250.419C192.128 250.001 192.356 249.406 192.356 248.633C192.356 246.999 191.418 246.182 189.544 246.182H186.998V251.046H189.544ZM198.001 256.594H202.637V258H196.272V244.757H198.001V256.594ZM206.202 246.163V250.59H211.028V252.015H206.202V256.575H211.598V258H204.473V244.738H211.598V246.163H206.202ZM227.43 244.757V246.163H223.82V258H222.091V246.163H218.462V244.757H227.43ZM240.503 244.757L235.506 258H233.511L228.514 244.757H230.357L234.518 256.176L238.679 244.757H240.503ZM246.761 254.941V253.63L253.43 244.396H255.501V253.44H257.401V254.941H255.501V258H253.791V254.941H246.761ZM253.867 246.201L248.756 253.44H253.867V246.201ZM266.595 258L261.142 251.958V258H259.413V244.757H261.142V250.894L266.614 244.757H268.799L262.795 251.388L268.856 258H266.595Z" fill="url(#paint0_linear_434_248)"/>
<defs>
<linearGradient id="paint0_linear_434_248" x1="146.65" y1="237" x2="287.897" y2="246.97" gradientUnits="userSpaceOnUse">
<stop stop-color="#6EFF24"/>
<stop offset="0.3125" stop-color="#57A8D6"/>
<stop offset="0.6875" stop-color="#B360E0"/>
<stop offset="1" stop-color="#FF2424"/>
</linearGradient>
<clipPath id="clip0_434_248">
<rect width="130" height="130" fill="white" transform="translate(150 77)"/>
</clipPath>
</defs>
</svg>
