<svg width="430" height="306" viewBox="0 0 430 306" fill="none" xmlns="http://www.w3.org/2000/svg">
<rect width="430" height="306" rx="5" fill="#1B1B1B" fill-opacity="0.5"/>
<path fill-rule="evenodd" clip-rule="evenodd" d="M208.841 105.16C197.542 106.425 187.133 110.627 177.845 117.67C174.606 120.126 169.553 124.977 166.876 128.2C159.888 136.612 154.836 146.616 152.136 157.387C150.792 162.746 149.862 170.437 150.017 174.907C150.106 177.48 150.346 178.035 151.813 179.051C152.465 179.502 152.799 179.571 153.993 179.496C155.236 179.419 155.5 179.315 156.218 178.621C156.666 178.187 157.136 177.576 157.263 177.262C157.39 176.948 157.578 174.843 157.681 172.584C157.996 165.684 159.146 159.583 161.296 153.416C168.686 132.212 185.643 117.053 206.129 113.335C208.722 112.864 209.769 112.802 215.054 112.802C220.339 112.802 221.385 112.864 223.978 113.335C240.898 116.405 255.481 127.26 264.412 143.43C269.191 152.084 271.95 162.119 272.427 172.584C272.53 174.843 272.716 176.948 272.84 177.262C273.127 177.985 274.203 179.08 274.885 179.343C275.881 179.726 277.524 179.577 278.318 179.031C279.937 177.918 280.012 177.665 279.999 173.307C279.952 157.522 273.738 140.808 263.23 128.2C260.929 125.439 256.455 121.032 253.689 118.801C244.966 111.765 234.543 107.112 223.865 105.49C220.875 105.035 211.744 104.835 208.841 105.16ZM213.232 120.674C207.938 121.504 203.288 126.339 202.264 132.08C201.621 135.685 202.322 139.668 204.146 142.773C205.211 144.585 207.732 147.022 209.543 147.992C212.401 149.521 216.015 149.802 219.072 148.731C222.097 147.672 225.138 144.797 226.713 141.507C228.751 137.25 228.636 131.561 226.429 127.539C224.793 124.556 221.308 121.718 218.324 120.936C216.945 120.575 214.625 120.456 213.232 120.674ZM194.377 132.486C188.368 135.999 184.119 139.783 180.099 145.201C174.604 152.605 171.166 161.641 170.331 170.873C169.831 176.402 170.134 177.874 171.998 178.977C173.662 179.962 175.476 179.631 176.806 178.1C177.629 177.154 177.705 176.794 177.873 173.041C178.422 160.792 185.007 148.341 194.467 141.664C195.622 140.848 196.722 140.071 196.91 139.938C197.207 139.728 197.215 139.466 196.97 137.937C196.802 136.88 196.737 135.177 196.807 133.672C196.872 132.294 196.859 131.167 196.779 131.167C196.699 131.167 195.618 131.76 194.377 132.486ZM233.433 132.935C233.635 134.592 233.413 137.887 233.005 139.299C232.885 139.713 233.163 139.994 234.86 141.174C239.105 144.125 242.265 147.373 245.217 151.818C249.656 158.503 252.324 167.039 252.331 174.588C252.334 176.586 252.65 177.544 253.605 178.446C254.916 179.684 256.583 179.881 258.11 178.977C259.974 177.874 260.276 176.402 259.776 170.873C258.323 154.801 249.216 140.223 235.835 132.554C234.504 131.791 233.371 131.167 233.316 131.167C233.262 131.167 233.314 131.963 233.433 132.935ZM212.569 155.385C211.139 155.464 209.106 155.707 208.05 155.925C197.627 158.076 188.89 165.922 187.733 174.17C187.457 176.142 187.779 177.54 188.733 178.502C190.284 180.07 189.07 180.001 215.038 179.999C230.017 179.998 238.732 179.915 239.256 179.769C240.282 179.481 241.421 178.706 242.022 177.887C242.654 177.025 242.776 174.821 242.297 172.911C240.576 166.057 233.937 159.657 225.658 156.869C221.907 155.605 217.536 155.11 212.569 155.385Z" fill="white"/>
<path d="M144.291 255.055H138.515L137.451 258H135.627L140.415 244.833H142.41L147.179 258H145.355L144.291 255.055ZM143.797 253.649L141.403 246.961L139.009 253.649H143.797ZM158.12 248.633C158.12 249.735 157.74 250.653 156.98 251.388C156.232 252.11 155.086 252.471 153.541 252.471H150.995V258H149.266V244.757H153.541C155.035 244.757 156.169 245.118 156.942 245.84C157.727 246.562 158.12 247.493 158.12 248.633ZM153.541 251.046C154.503 251.046 155.213 250.837 155.669 250.419C156.125 250.001 156.353 249.406 156.353 248.633C156.353 246.999 155.415 246.182 153.541 246.182H150.995V251.046H153.541ZM169.123 248.633C169.123 249.735 168.743 250.653 167.983 251.388C167.235 252.11 166.089 252.471 164.544 252.471H161.998V258H160.269V244.757H164.544C166.038 244.757 167.172 245.118 167.945 245.84C168.73 246.562 169.123 247.493 169.123 248.633ZM164.544 251.046C165.506 251.046 166.216 250.837 166.672 250.419C167.128 250.001 167.356 249.406 167.356 248.633C167.356 246.999 166.418 246.182 164.544 246.182H161.998V251.046H164.544ZM173.001 256.594H177.637V258H171.272V244.757H173.001V256.594ZM181.202 246.163V250.59H186.028V252.015H181.202V256.575H186.598V258H179.473V244.738H186.598V246.163H181.202ZM198.478 258.133C197.604 258.133 196.819 257.981 196.122 257.677C195.438 257.36 194.9 256.93 194.507 256.385C194.115 255.828 193.912 255.188 193.899 254.466H195.742C195.806 255.087 196.059 255.612 196.502 256.043C196.958 256.461 197.617 256.67 198.478 256.67C199.302 256.67 199.948 256.467 200.416 256.062C200.898 255.644 201.138 255.112 201.138 254.466C201.138 253.959 200.999 253.548 200.72 253.231C200.442 252.914 200.093 252.674 199.675 252.509C199.257 252.344 198.694 252.167 197.984 251.977C197.11 251.749 196.407 251.521 195.875 251.293C195.356 251.065 194.906 250.71 194.526 250.229C194.159 249.735 193.975 249.076 193.975 248.253C193.975 247.531 194.159 246.891 194.526 246.334C194.894 245.777 195.407 245.346 196.065 245.042C196.737 244.738 197.503 244.586 198.364 244.586C199.606 244.586 200.619 244.896 201.404 245.517C202.202 246.138 202.652 246.961 202.753 247.987H200.853C200.79 247.48 200.524 247.037 200.055 246.657C199.587 246.264 198.966 246.068 198.193 246.068C197.471 246.068 196.882 246.258 196.426 246.638C195.97 247.005 195.742 247.525 195.742 248.196C195.742 248.677 195.875 249.07 196.141 249.374C196.42 249.678 196.756 249.912 197.148 250.077C197.554 250.229 198.117 250.406 198.839 250.609C199.713 250.85 200.416 251.09 200.948 251.331C201.48 251.559 201.936 251.92 202.316 252.414C202.696 252.895 202.886 253.554 202.886 254.39C202.886 255.036 202.715 255.644 202.373 256.214C202.031 256.784 201.525 257.246 200.853 257.601C200.182 257.956 199.39 258.133 198.478 258.133ZM215.634 244.757V258H213.905V251.996H207.16V258H205.431V244.757H207.16V250.571H213.905V244.757H215.634ZM226.414 255.055H220.638L219.574 258H217.75L222.538 244.833H224.533L229.302 258H227.478L226.414 255.055ZM225.92 253.649L223.526 246.961L221.132 253.649H225.92ZM238.362 258L235.208 252.585H233.118V258H231.389V244.757H235.664C236.664 244.757 237.507 244.928 238.191 245.27C238.887 245.612 239.407 246.074 239.749 246.657C240.091 247.24 240.262 247.905 240.262 248.652C240.262 249.564 239.996 250.368 239.464 251.065C238.944 251.762 238.159 252.224 237.108 252.452L240.433 258H238.362ZM233.118 251.198H235.664C236.601 251.198 237.304 250.97 237.773 250.514C238.241 250.045 238.476 249.425 238.476 248.652C238.476 247.867 238.241 247.259 237.773 246.828C237.317 246.397 236.614 246.182 235.664 246.182H233.118V251.198ZM244.677 246.163V250.59H249.503V252.015H244.677V256.575H250.073V258H242.948V244.738H250.073V246.163H244.677ZM261.544 248.633C261.544 249.735 261.164 250.653 260.404 251.388C259.656 252.11 258.51 252.471 256.965 252.471H254.419V258H252.69V244.757H256.965C258.459 244.757 259.593 245.118 260.366 245.84C261.151 246.562 261.544 247.493 261.544 248.633ZM256.965 251.046C257.927 251.046 258.637 250.837 259.093 250.419C259.549 250.001 259.777 249.406 259.777 248.633C259.777 246.999 258.839 246.182 256.965 246.182H254.419V251.046H256.965ZM265.421 256.594H270.057V258H263.692V244.757H265.421V256.594ZM279.722 255.055H273.946L272.882 258H271.058L275.846 244.833H277.841L282.61 258H280.786L279.722 255.055ZM279.228 253.649L276.834 246.961L274.44 253.649H279.228ZM293.968 244.757L289.655 253.003V258H287.926V253.003L283.594 244.757H285.513L288.781 251.464L292.049 244.757H293.968Z" fill="url(#paint0_linear_434_258)"/>
<defs>
<linearGradient id="paint0_linear_434_258" x1="115.583" y1="237" x2="319.901" y2="257.977" gradientUnits="userSpaceOnUse">
<stop offset="0.0729167" stop-color="#FF2424"/>
<stop offset="0.390625" stop-color="#6EFF24"/>
<stop offset="0.651042" stop-color="#B360E0"/>
<stop offset="1" stop-color="#57A8D6"/>
</linearGradient>
</defs>
</svg>
