<svg width="430" height="306" viewBox="0 0 430 306" fill="none" xmlns="http://www.w3.org/2000/svg">
<rect width="430" height="306" rx="5" fill="#1B1B1B" fill-opacity="0.5"/>
<g clip-path="url(#clip0_434_289)">
<path d="M280 142C280 177.899 250.899 207 215 207C179.101 207 150 177.899 150 142C150 106.101 179.101 77 215 77C250.899 77 280 106.101 280 142Z" fill="black"/>
<path fill-rule="evenodd" clip-rule="evenodd" d="M248.374 140.57C248.374 159.002 233.432 173.944 215 173.944C209.476 173.944 204.265 172.602 199.676 170.226L199.624 170.368L181.626 197.862L181.626 148.516C181.626 146.053 181.626 143.424 181.626 140.57C181.626 122.138 196.568 107.196 215 107.196C233.432 107.196 248.374 122.138 248.374 140.57ZM222.946 140.57C222.946 144.958 219.389 148.516 215 148.516C210.611 148.516 207.054 144.958 207.054 140.57C207.054 136.181 210.611 132.623 215 132.623C219.389 132.623 222.946 136.181 222.946 140.57Z" fill="white"/>
</g>
<path d="M183.645 258L178.192 251.958V258H176.463V244.757H178.192V250.894L183.664 244.757H185.849L179.845 251.388L185.906 258H183.645ZM189.566 244.757V258H187.837V244.757H189.566ZM202.925 258H201.196L194.242 247.455V258H192.513V244.738H194.242L201.196 255.264V244.738H202.925V258ZM211.876 258.133C210.648 258.133 209.527 257.848 208.513 257.278C207.5 256.695 206.696 255.891 206.1 254.865C205.518 253.826 205.226 252.661 205.226 251.369C205.226 250.077 205.518 248.918 206.1 247.892C206.696 246.853 207.5 246.049 208.513 245.479C209.527 244.896 210.648 244.605 211.876 244.605C213.118 244.605 214.245 244.896 215.258 245.479C216.272 246.049 217.07 246.847 217.652 247.873C218.235 248.899 218.526 250.064 218.526 251.369C218.526 252.674 218.235 253.839 217.652 254.865C217.07 255.891 216.272 256.695 215.258 257.278C214.245 257.848 213.118 258.133 211.876 258.133ZM211.876 256.632C212.801 256.632 213.631 256.417 214.365 255.986C215.113 255.555 215.695 254.941 216.113 254.143C216.544 253.345 216.759 252.42 216.759 251.369C216.759 250.305 216.544 249.38 216.113 248.595C215.695 247.797 215.119 247.183 214.384 246.752C213.65 246.321 212.814 246.106 211.876 246.106C210.939 246.106 210.103 246.321 209.368 246.752C208.634 247.183 208.051 247.797 207.62 248.595C207.202 249.38 206.993 250.305 206.993 251.369C206.993 252.42 207.202 253.345 207.62 254.143C208.051 254.941 208.634 255.555 209.368 255.986C210.116 256.417 210.952 256.632 211.876 256.632ZM229.663 248.633C229.663 249.735 229.283 250.653 228.523 251.388C227.775 252.11 226.629 252.471 225.084 252.471H222.538V258H220.809V244.757H225.084C226.578 244.757 227.712 245.118 228.485 245.84C229.27 246.562 229.663 247.493 229.663 248.633ZM225.084 251.046C226.046 251.046 226.756 250.837 227.212 250.419C227.668 250.001 227.896 249.406 227.896 248.633C227.896 246.999 226.958 246.182 225.084 246.182H222.538V251.046H225.084ZM233.503 244.757V253.136C233.503 254.314 233.788 255.188 234.358 255.758C234.94 256.328 235.745 256.613 236.771 256.613C237.784 256.613 238.576 256.328 239.146 255.758C239.728 255.188 240.02 254.314 240.02 253.136V244.757H241.749V253.117C241.749 254.219 241.527 255.15 241.084 255.91C240.64 256.657 240.039 257.215 239.279 257.582C238.531 257.949 237.689 258.133 236.752 258.133C235.814 258.133 234.966 257.949 234.206 257.582C233.458 257.215 232.863 256.657 232.42 255.91C231.989 255.15 231.774 254.219 231.774 253.117V244.757H233.503ZM251.264 251.179C251.745 251.255 252.182 251.451 252.575 251.768C252.98 252.085 253.297 252.477 253.525 252.946C253.766 253.415 253.886 253.915 253.886 254.447C253.886 255.118 253.715 255.726 253.373 256.271C253.031 256.803 252.531 257.227 251.872 257.544C251.226 257.848 250.46 258 249.573 258H244.633V244.757H249.383C250.282 244.757 251.049 244.909 251.682 245.213C252.315 245.504 252.79 245.903 253.107 246.41C253.424 246.917 253.582 247.487 253.582 248.12C253.582 248.905 253.367 249.558 252.936 250.077C252.518 250.584 251.961 250.951 251.264 251.179ZM246.362 250.476H249.269C250.08 250.476 250.707 250.286 251.15 249.906C251.593 249.526 251.815 249 251.815 248.329C251.815 247.658 251.593 247.132 251.15 246.752C250.707 246.372 250.067 246.182 249.231 246.182H246.362V250.476ZM249.421 256.575C250.282 256.575 250.954 256.372 251.435 255.967C251.916 255.562 252.157 254.998 252.157 254.276C252.157 253.541 251.904 252.965 251.397 252.547C250.89 252.116 250.213 251.901 249.364 251.901H246.362V256.575H249.421Z" fill="url(#paint0_linear_434_289)"/>
<defs>
<linearGradient id="paint0_linear_434_289" x1="165.291" y1="237" x2="268.256" y2="242.286" gradientUnits="userSpaceOnUse">
<stop stop-color="#6EFF24"/>
<stop offset="0.3125" stop-color="#57A8D6"/>
<stop offset="0.6875" stop-color="#B360E0"/>
<stop offset="1" stop-color="#FF2424"/>
</linearGradient>
<clipPath id="clip0_434_289">
<rect width="130" height="130" fill="white" transform="translate(150 77)"/>
</clipPath>
</defs>
</svg>
