<svg width="430" height="306" viewBox="0 0 430 306" fill="none" xmlns="http://www.w3.org/2000/svg">
<rect width="430" height="306" rx="5" fill="#1B1B1B" fill-opacity="0.5"/>
<path fill-rule="evenodd" clip-rule="evenodd" d="M197.254 96.2144C176.542 96.6949 166.001 97.7948 161.829 99.9102C159.536 101.072 156.454 103.998 155.101 106.297C153.386 109.209 152.217 114.988 151.366 124.762C150.878 130.355 150.878 152.646 151.366 158.239C152.217 168.013 153.386 173.792 155.101 176.704C156.576 179.209 159.632 182.029 162.166 183.223C166.818 185.413 175.995 186.269 200.917 186.835C225.345 187.39 253.923 186.495 262.913 184.895C268.219 183.95 270.263 182.967 273.264 179.917C275.88 177.257 276.754 175.679 277.685 171.927C279.385 165.083 280 157.001 280 141.501C280 126 279.385 117.918 277.685 111.074C276.754 107.322 275.88 105.744 273.264 103.085C270.263 100.033 268.215 99.0487 262.913 98.1073C253.315 96.4029 224.692 95.5778 197.254 96.2144ZM219.668 131.977C228.585 137.135 235.881 141.421 235.881 141.501C235.881 141.701 203.559 160.382 203.013 160.497C202.617 160.58 202.57 158.547 202.57 141.501C202.57 124.454 202.617 122.421 203.013 122.504C203.256 122.555 210.751 126.818 219.668 131.977Z" fill="white"/>
<path d="M219.668 131.977C228.585 137.135 235.881 141.421 235.881 141.501C235.881 141.701 203.559 160.382 203.013 160.497C202.617 160.58 202.57 158.547 202.57 141.501C202.57 124.454 202.617 122.421 203.013 122.504C203.256 122.555 210.751 126.818 219.668 131.977Z" fill="white"/>
<path fill-rule="evenodd" clip-rule="evenodd" d="M197.254 96.2144C176.542 96.6949 166.001 97.7948 161.829 99.9102C159.536 101.072 156.454 103.998 155.101 106.297C153.386 109.209 152.217 114.988 151.366 124.762C150.878 130.355 150.878 152.646 151.366 158.239C152.217 168.013 153.386 173.792 155.101 176.704C156.576 179.209 159.632 182.029 162.166 183.223C166.818 185.413 175.995 186.269 200.917 186.835C225.345 187.39 253.923 186.495 262.913 184.895C268.219 183.95 270.263 182.967 273.264 179.917C275.88 177.257 276.754 175.679 277.685 171.927C279.385 165.083 280 157.001 280 141.501C280 126 279.385 117.918 277.685 111.074C276.754 107.322 275.88 105.744 273.264 103.085C270.263 100.033 268.215 99.0487 262.913 98.1073C253.315 96.4029 224.692 95.5778 197.254 96.2144ZM219.668 131.977C228.585 137.135 235.881 141.421 235.881 141.501C235.881 141.701 203.559 160.382 203.013 160.497C202.617 160.58 202.57 158.547 202.57 141.501C202.57 124.454 202.617 122.421 203.013 122.504C203.256 122.555 210.751 126.818 219.668 131.977Z" fill="#FF0000"/>
<path d="M183.735 244.757L179.422 253.003V258H177.693V253.003L173.361 244.757H175.28L178.548 251.464L181.816 244.757H183.735ZM191.563 258.133C190.334 258.133 189.213 257.848 188.2 257.278C187.186 256.695 186.382 255.891 185.787 254.865C185.204 253.826 184.913 252.661 184.913 251.369C184.913 250.077 185.204 248.918 185.787 247.892C186.382 246.853 187.186 246.049 188.2 245.479C189.213 244.896 190.334 244.605 191.563 244.605C192.804 244.605 193.931 244.896 194.945 245.479C195.958 246.049 196.756 246.847 197.339 247.873C197.921 248.899 198.213 250.064 198.213 251.369C198.213 252.674 197.921 253.839 197.339 254.865C196.756 255.891 195.958 256.695 194.945 257.278C193.931 257.848 192.804 258.133 191.563 258.133ZM191.563 256.632C192.487 256.632 193.317 256.417 194.052 255.986C194.799 255.555 195.382 254.941 195.8 254.143C196.23 253.345 196.446 252.42 196.446 251.369C196.446 250.305 196.23 249.38 195.8 248.595C195.382 247.797 194.805 247.183 194.071 246.752C193.336 246.321 192.5 246.106 191.563 246.106C190.625 246.106 189.789 246.321 189.055 246.752C188.32 247.183 187.737 247.797 187.307 248.595C186.889 249.38 186.68 250.305 186.68 251.369C186.68 252.42 186.889 253.345 187.307 254.143C187.737 254.941 188.32 255.555 189.055 255.986C189.802 256.417 190.638 256.632 191.563 256.632ZM202.186 244.757V253.136C202.186 254.314 202.471 255.188 203.041 255.758C203.624 256.328 204.428 256.613 205.454 256.613C206.468 256.613 207.259 256.328 207.829 255.758C208.412 255.188 208.703 254.314 208.703 253.136V244.757H210.432V253.117C210.432 254.219 210.211 255.15 209.767 255.91C209.324 256.657 208.722 257.215 207.962 257.582C207.215 257.949 206.373 258.133 205.435 258.133C204.498 258.133 203.649 257.949 202.889 257.582C202.142 257.215 201.547 256.657 201.103 255.91C200.673 255.15 200.457 254.219 200.457 253.117V244.757H202.186ZM221.468 244.757V246.163H217.858V258H216.129V246.163H212.5V244.757H221.468ZM225.287 244.757V253.136C225.287 254.314 225.572 255.188 226.142 255.758C226.724 256.328 227.529 256.613 228.555 256.613C229.568 256.613 230.36 256.328 230.93 255.758C231.512 255.188 231.804 254.314 231.804 253.136V244.757H233.533V253.117C233.533 254.219 233.311 255.15 232.868 255.91C232.424 256.657 231.823 257.215 231.063 257.582C230.315 257.949 229.473 258.133 228.536 258.133C227.598 258.133 226.75 257.949 225.99 257.582C225.242 257.215 224.647 256.657 224.204 255.91C223.773 255.15 223.558 254.219 223.558 253.117V244.757H225.287ZM243.048 251.179C243.529 251.255 243.966 251.451 244.359 251.768C244.764 252.085 245.081 252.477 245.309 252.946C245.55 253.415 245.67 253.915 245.67 254.447C245.67 255.118 245.499 255.726 245.157 256.271C244.815 256.803 244.315 257.227 243.656 257.544C243.01 257.848 242.244 258 241.357 258H236.417V244.757H241.167C242.066 244.757 242.833 244.909 243.466 245.213C244.099 245.504 244.574 245.903 244.891 246.41C245.208 246.917 245.366 247.487 245.366 248.12C245.366 248.905 245.151 249.558 244.72 250.077C244.302 250.584 243.745 250.951 243.048 251.179ZM238.146 250.476H241.053C241.864 250.476 242.491 250.286 242.934 249.906C243.377 249.526 243.599 249 243.599 248.329C243.599 247.658 243.377 247.132 242.934 246.752C242.491 246.372 241.851 246.182 241.015 246.182H238.146V250.476ZM241.205 256.575C242.066 256.575 242.738 256.372 243.219 255.967C243.7 255.562 243.941 254.998 243.941 254.276C243.941 253.541 243.688 252.965 243.181 252.547C242.674 252.116 241.997 251.901 241.148 251.901H238.146V256.575H241.205ZM249.798 246.163V250.59H254.624V252.015H249.798V256.575H255.194V258H248.069V244.738H255.194V246.163H249.798Z" fill="url(#paint0_linear_434_304)"/>
<defs>
<linearGradient id="paint0_linear_434_304" x1="162.806" y1="237" x2="270.89" y2="242.826" gradientUnits="userSpaceOnUse">
<stop offset="0.0729167" stop-color="#FF2424"/>
<stop offset="0.390625" stop-color="#6EFF24"/>
<stop offset="0.651042" stop-color="#B360E0"/>
<stop offset="1" stop-color="#57A8D6"/>
</linearGradient>
</defs>
</svg>
