<svg width="430" height="306" viewBox="0 0 430 306" fill="none" xmlns="http://www.w3.org/2000/svg">
<rect width="430" height="306" rx="5" fill="#1B1B1B" fill-opacity="0.5"/>
<path fill-rule="evenodd" clip-rule="evenodd" d="M153 99.4763V190.088H184.141L184.036 206.769L201.174 207L218.016 190.088H243.088L277 156.071V77H161.345L153 99.4763ZM265.773 149.996L245.683 170.156H215.008L198.366 186.83V170.156H172.875V88.2615L265.551 88.4821L265.773 149.996ZM203.551 145.026H215.216V110.796H203.551V145.026ZM234.659 145.051L246.108 144.809L246.334 110.796H234.659V145.051Z" fill="white"/>
<path fill-rule="evenodd" clip-rule="evenodd" d="M265.773 149.996L245.683 170.156H215.008L198.366 186.83V170.156H172.875V88.2615L265.551 88.4821L265.773 149.996ZM203.551 145.026V110.796H215.216V145.026H203.551ZM234.659 145.051V110.796H246.334L246.108 144.809L234.659 145.051Z" fill="white"/>
<path fill-rule="evenodd" clip-rule="evenodd" d="M153 99.4763V190.088H184.141L184.036 206.769L201.174 207L218.016 190.088H243.088L277 156.071V77H161.345L153 99.4763ZM265.773 149.996L245.683 170.156H215.008L198.366 186.83V170.156H172.875V88.2615L265.551 88.4821L265.773 149.996ZM203.551 145.026H215.216V110.796H203.551V145.026ZM234.659 145.051L246.108 144.809L246.334 110.796H234.659V145.051Z" fill="#5A3E85"/>
<path d="M188.614 244.757V246.163H185.004V258H183.275V246.163H179.646V244.757H188.614ZM207.386 244.757L203.548 258H201.61L198.532 247.341L195.34 258L193.421 258.019L189.716 244.757H191.559L194.447 255.986L197.639 244.757H199.577L202.617 255.948L205.524 244.757H207.386ZM211.007 244.757V258H209.278V244.757H211.007ZM222.105 244.757V246.163H218.495V258H216.766V246.163H213.137V244.757H222.105ZM223.588 251.369C223.588 250.077 223.879 248.918 224.462 247.892C225.044 246.853 225.836 246.043 226.837 245.46C227.85 244.877 228.971 244.586 230.2 244.586C231.644 244.586 232.904 244.934 233.981 245.631C235.057 246.328 235.843 247.316 236.337 248.595H234.266C233.898 247.797 233.366 247.183 232.67 246.752C231.986 246.321 231.162 246.106 230.2 246.106C229.275 246.106 228.445 246.321 227.711 246.752C226.976 247.183 226.4 247.797 225.982 248.595C225.564 249.38 225.355 250.305 225.355 251.369C225.355 252.42 225.564 253.345 225.982 254.143C226.4 254.928 226.976 255.536 227.711 255.967C228.445 256.398 229.275 256.613 230.2 256.613C231.162 256.613 231.986 256.404 232.67 255.986C233.366 255.555 233.898 254.941 234.266 254.143H236.337C235.843 255.41 235.057 256.391 233.981 257.088C232.904 257.772 231.644 258.114 230.2 258.114C228.971 258.114 227.85 257.829 226.837 257.259C225.836 256.676 225.044 255.872 224.462 254.846C223.879 253.82 223.588 252.661 223.588 251.369ZM249.113 244.757V258H247.384V251.996H240.639V258H238.91V244.757H240.639V250.571H247.384V244.757H249.113Z" fill="url(#paint0_linear_434_294)"/>
<defs>
<linearGradient id="paint0_linear_434_294" x1="170.262" y1="237" x2="262.977" y2="241.283" gradientUnits="userSpaceOnUse">
<stop stop-color="#B360E0"/>
<stop offset="0.369792" stop-color="#57A8D6"/>
<stop offset="0.682292" stop-color="#6EFF24"/>
<stop offset="1" stop-color="#FF2424"/>
</linearGradient>
</defs>
</svg>
