<svg width="430" height="306" viewBox="0 0 430 306" fill="none" xmlns="http://www.w3.org/2000/svg">
<rect width="430" height="306" rx="5" fill="#1B1B1B" fill-opacity="0.5"/>
<path fill-rule="evenodd" clip-rule="evenodd" d="M104 182.985H326V102.723H104V182.985ZM139.332 123.594C142.369 127.613 144.926 130.856 145.014 130.801C145.103 130.746 147.627 127.457 150.624 123.492L156.073 116.282H172.504L172.616 140.448L187.575 116.286L263.129 116.282V142.745H272.018V116.282H288.061V168.988H272.018V157.835H247.086V131.372H238.197V168.988H221.938V131.372H213.266V168.988H197.006V157.835L179.337 157.847L172.616 168.76L156.251 168.769L156.14 140.961L150.611 148.185C147.571 152.157 145.027 155.413 144.958 155.418C144.89 155.424 142.353 152.186 139.321 148.222C136.29 144.259 133.761 141.011 133.701 141.005C133.642 141 133.593 147.247 133.593 154.888V168.78L117.441 168.879V116.282L133.81 116.287L139.332 123.594ZM311.149 138.456L303.275 143.224C298.944 145.847 295.359 147.993 295.308 147.993C295.256 147.993 295.215 140.908 295.215 132.247V116.501H311.262L311.149 138.456ZM188.833 142.635L192.842 142.695C195.048 142.728 196.888 142.718 196.932 142.673C196.976 142.629 196.987 139.69 196.955 136.143L196.897 129.694L188.833 142.635ZM306.161 150.983C307.73 151.467 308.885 152.216 310.159 153.574C312.923 156.523 313.453 160.511 311.587 164.321C308.803 170.005 301.343 171.328 296.619 166.977C294.586 165.103 293.319 161.872 293.546 159.138C294.05 153.054 300.132 149.122 306.161 150.983ZM298.9 156.295C298.9 156.888 298.971 156.96 299.551 156.96H300.201V164.177H301.502V156.96H302.275C302.991 156.96 303.043 156.915 302.98 156.358L302.911 155.757L298.9 155.631V156.295ZM303.598 155.794C303.518 155.874 303.453 157.793 303.453 160.058V164.177H305.49C307.84 164.177 307.789 164.223 307.789 162.081C307.789 160.94 307.703 160.59 307.326 160.211C306.91 159.791 306.899 159.724 307.218 159.544C307.728 159.256 307.738 155.977 307.229 155.78C306.764 155.6 303.778 155.611 303.598 155.794ZM306.271 157.936C306.271 158.701 306.174 158.965 305.821 159.156C305.05 159.572 304.754 159.268 304.754 158.06V156.96H305.513C306.266 156.96 306.271 156.966 306.271 157.936ZM306.056 160.569C306.174 160.643 306.271 161.239 306.271 161.893V163.083H304.754V161.808C304.754 161.106 304.812 160.474 304.882 160.403C305.024 160.26 305.717 160.358 306.056 160.569Z" fill="white"/>
<path fill-rule="evenodd" clip-rule="evenodd" d="M139.332 123.594C142.369 127.613 144.926 130.856 145.014 130.801C145.103 130.746 147.627 127.457 150.624 123.492L156.073 116.282H172.504L172.616 140.448L187.575 116.286L263.129 116.282V142.745H272.018V116.282H288.061V168.988H272.018V157.835H247.086V131.372H238.197V168.988H221.938V131.372H213.266V168.988H197.006V157.835L179.337 157.847L172.616 168.76L156.251 168.769L156.14 140.961L150.611 148.185C147.571 152.157 145.027 155.413 144.958 155.418C144.89 155.424 142.353 152.186 139.321 148.222C136.29 144.259 133.761 141.011 133.701 141.005C133.642 141 133.593 147.247 133.593 154.888V168.78L117.441 168.879V116.282L133.81 116.287L139.332 123.594ZM188.833 142.635L196.897 129.694L196.955 136.143C196.987 139.69 196.976 142.629 196.932 142.673C196.888 142.718 195.048 142.728 192.842 142.695L188.833 142.635Z" fill="white"/>
<path d="M311.149 138.456L303.275 143.224C298.944 145.847 295.359 147.993 295.308 147.993C295.256 147.993 295.215 140.908 295.215 132.247V116.501H311.262L311.149 138.456Z" fill="white"/>
<path fill-rule="evenodd" clip-rule="evenodd" d="M306.161 150.983C307.73 151.467 308.885 152.216 310.159 153.574C312.923 156.523 313.453 160.511 311.587 164.321C308.803 170.005 301.343 171.328 296.619 166.977C294.586 165.103 293.319 161.872 293.546 159.138C294.05 153.054 300.132 149.122 306.161 150.983ZM299.551 156.96C298.971 156.96 298.9 156.888 298.9 156.295V155.631L302.911 155.757L302.98 156.358C303.043 156.915 302.991 156.96 302.275 156.96H301.502V164.177H300.201V156.96H299.551ZM303.453 160.058C303.453 157.793 303.518 155.874 303.598 155.794C303.778 155.611 306.764 155.6 307.229 155.78C307.738 155.977 307.728 159.256 307.218 159.544C306.899 159.724 306.91 159.791 307.326 160.211C307.703 160.59 307.789 160.94 307.789 162.081C307.789 164.223 307.84 164.177 305.49 164.177H303.453V160.058Z" fill="white"/>
<path d="M306.271 157.936C306.271 158.701 306.174 158.965 305.821 159.156C305.05 159.572 304.754 159.268 304.754 158.06V156.96H305.513C306.266 156.96 306.271 156.966 306.271 157.936Z" fill="white"/>
<path d="M306.056 160.569C306.174 160.643 306.271 161.239 306.271 161.893V163.083H304.754V161.808C304.754 161.106 304.812 160.474 304.882 160.403C305.024 160.26 305.717 160.358 306.056 160.569Z" fill="white"/>
<path fill-rule="evenodd" clip-rule="evenodd" d="M104 182.985H326V102.723H104V182.985ZM139.332 123.594C142.369 127.613 144.926 130.856 145.014 130.801C145.103 130.746 147.627 127.457 150.624 123.492L156.073 116.282H172.504L172.616 140.448L187.575 116.286L263.129 116.282V142.745H272.018V116.282H288.061V168.988H272.018V157.835H247.086V131.372H238.197V168.988H221.938V131.372H213.266V168.988H197.006V157.835L179.337 157.847L172.616 168.76L156.251 168.769L156.14 140.961L150.611 148.185C147.571 152.157 145.027 155.413 144.958 155.418C144.89 155.424 142.353 152.186 139.321 148.222C136.29 144.259 133.761 141.011 133.701 141.005C133.642 141 133.593 147.247 133.593 154.888V168.78L117.441 168.879V116.282L133.81 116.287L139.332 123.594ZM311.149 138.456L303.275 143.224C298.944 145.847 295.359 147.993 295.308 147.993C295.256 147.993 295.215 140.908 295.215 132.247V116.501H311.262L311.149 138.456ZM188.833 142.635L192.842 142.695C195.048 142.728 196.888 142.718 196.932 142.673C196.976 142.629 196.987 139.69 196.955 136.143L196.897 129.694L188.833 142.635ZM306.161 150.983C307.73 151.467 308.885 152.216 310.159 153.574C312.923 156.523 313.453 160.511 311.587 164.321C308.803 170.005 301.343 171.328 296.619 166.977C294.586 165.103 293.319 161.872 293.546 159.138C294.05 153.054 300.132 149.122 306.161 150.983ZM298.9 156.295C298.9 156.888 298.971 156.96 299.551 156.96H300.201V164.177H301.502V156.96H302.275C302.991 156.96 303.043 156.915 302.98 156.358L302.911 155.757L298.9 155.631V156.295ZM303.598 155.794C303.518 155.874 303.453 157.793 303.453 160.058V164.177H305.49C307.84 164.177 307.789 164.223 307.789 162.081C307.789 160.94 307.703 160.59 307.326 160.211C306.91 159.791 306.899 159.724 307.218 159.544C307.728 159.256 307.738 155.977 307.229 155.78C306.764 155.6 303.778 155.611 303.598 155.794ZM306.271 157.936C306.271 158.701 306.174 158.965 305.821 159.156C305.05 159.572 304.754 159.268 304.754 158.06V156.96H305.513C306.266 156.96 306.271 156.966 306.271 157.936ZM306.056 160.569C306.174 160.643 306.271 161.239 306.271 161.893V163.083H304.754V161.808C304.754 161.106 304.812 160.474 304.882 160.403C305.024 160.26 305.717 160.358 306.056 160.569Z" fill="#F72D17"/>
<path d="M182.828 258L178.363 246.106H178.287C178.312 246.359 178.331 246.682 178.344 247.075C178.369 247.468 178.388 247.898 178.401 248.367C178.414 248.823 178.42 249.292 178.42 249.773V258H176.843V244.434H179.37L183.55 255.549H183.626L187.882 244.434H190.39V258H188.699V249.659C188.699 249.216 188.705 248.779 188.718 248.348C188.731 247.905 188.75 247.493 188.775 247.113C188.8 246.72 188.819 246.391 188.832 246.125H188.756L184.234 258H182.828ZM202.592 258L200.958 253.801H195.581L193.966 258H192.237L197.538 244.377H199.077L204.359 258H202.592ZM198.925 248.177C198.887 248.076 198.824 247.892 198.735 247.626C198.647 247.36 198.558 247.088 198.469 246.809C198.393 246.518 198.33 246.296 198.279 246.144C198.216 246.397 198.146 246.657 198.07 246.923C198.007 247.176 197.937 247.411 197.861 247.626C197.798 247.841 197.741 248.025 197.69 248.177L196.151 252.281H200.445L198.925 248.177ZM209.173 258H207.463V245.935H203.226V244.434H213.391V245.935H209.173V258ZM225.013 258H223.303V252.433C222.568 252.686 221.878 252.895 221.232 253.06C220.598 253.212 219.889 253.288 219.104 253.288C217.837 253.288 216.855 252.997 216.159 252.414C215.462 251.819 215.114 250.964 215.114 249.849V244.434H216.824V249.602C216.824 250.337 217.014 250.888 217.394 251.255C217.786 251.61 218.413 251.787 219.275 251.787C220.022 251.787 220.693 251.717 221.289 251.578C221.884 251.439 222.555 251.249 223.303 251.008V244.434H225.013V258ZM238.063 258H236.353V245.935H232.116V244.434H242.281V245.935H238.063V258ZM248.202 244.434C249.33 244.434 250.273 244.542 251.033 244.757C251.806 244.972 252.382 245.327 252.762 245.821C253.155 246.315 253.351 246.974 253.351 247.797C253.351 248.329 253.25 248.804 253.047 249.222C252.857 249.627 252.566 249.969 252.173 250.248C251.793 250.514 251.325 250.698 250.767 250.799V250.894C251.337 250.983 251.85 251.147 252.306 251.388C252.775 251.629 253.142 251.971 253.408 252.414C253.674 252.857 253.807 253.434 253.807 254.143C253.807 254.966 253.617 255.669 253.237 256.252C252.857 256.822 252.313 257.259 251.603 257.563C250.907 257.854 250.071 258 249.095 258H244.326V244.434H248.202ZM248.544 250.21C249.71 250.21 250.508 250.026 250.938 249.659C251.369 249.279 251.584 248.722 251.584 247.987C251.584 247.24 251.318 246.708 250.786 246.391C250.267 246.062 249.431 245.897 248.278 245.897H246.036V250.21H248.544ZM246.036 251.635V256.556H248.772C249.976 256.556 250.812 256.322 251.28 255.853C251.749 255.384 251.983 254.77 251.983 254.01C251.983 253.529 251.876 253.111 251.66 252.756C251.458 252.401 251.109 252.129 250.615 251.939C250.134 251.736 249.475 251.635 248.639 251.635H246.036Z" fill="url(#paint0_linear_434_299)"/>
<defs>
<linearGradient id="paint0_linear_434_299" x1="165.291" y1="237" x2="268.256" y2="242.286" gradientUnits="userSpaceOnUse">
<stop offset="0.0729167" stop-color="#FF2424"/>
<stop offset="0.390625" stop-color="#6EFF24"/>
<stop offset="0.651042" stop-color="#B360E0"/>
<stop offset="1" stop-color="#57A8D6"/>
</linearGradient>
</defs>
</svg>
